<svg id="图层_1" data-name="图层 1" xmlns="http://www.w3.org/2000/svg" viewBox="0 0 45 45"><defs><style>.cls-1{fill:#666;}.cls-2,.cls-4{fill:none;stroke-miterlimit:10;stroke-width:0.5px;}.cls-2{stroke:#666;}</style></defs><title>yingyegaikuang</title><path class="cls-1" d="M40.14,23.48H21.52V4.86a.9.9,0,0,0-.9-.9h-.17A20.49,20.49,0,1,0,41,24.54h0v-.16A.9.9,0,0,0,40.14,23.48ZM20.55,43a18.54,18.54,0,0,1-1-37.06V24.53a.9.9,0,0,0,.9.9H39.06A18.54,18.54,0,0,1,20.55,43Z"/><path class="cls-2" d="M40.14,23.48H21.52V4.86a.9.9,0,0,0-.9-.9h-.17A20.49,20.49,0,1,0,41,24.54h0v-.16A.9.9,0,0,0,40.14,23.48ZM20.55,43a18.54,18.54,0,0,1-1-37.06V24.53a.9.9,0,0,0,.9.9H39.06A18.54,18.54,0,0,1,20.55,43Z"/><path class="cls-3" d="M44.94,20.44A20.49,20.49,0,0,0,24.56.06h-.18a.9.9,0,0,0-.9.9V20.63a.9.9,0,0,0,.9.9H44a.9.9,0,0,0,.9-.9v-.18Zm-19.51-.87V2.06A18.51,18.51,0,0,1,42.95,19.57Z"/><path class="cls-4" d="M44.94,20.44A20.49,20.49,0,0,0,24.56.06h-.18a.9.9,0,0,0-.9.9V20.63a.9.9,0,0,0,.9.9H44a.9.9,0,0,0,.9-.9v-.18Zm-19.51-.87V2.06A18.51,18.51,0,0,1,42.95,19.57Z"/></svg>