<svg id="图层_1" data-name="图层 1" xmlns="http://www.w3.org/2000/svg" xmlns:xlink="http://www.w3.org/1999/xlink" viewBox="0 0 31 26"><defs><style>.cls-1{fill:url(#未命名的渐变_23);}.cls-2{fill:url(#未命名的渐变_23-2);}.cls-3{fill:url(#未命名的渐变_23-3);}.cls-4{fill:url(#未命名的渐变_23-4);}.cls-5{fill:url(#未命名的渐变_23-5);}.cls-6{fill:url(#未命名的渐变_23-6);}.cls-7{fill:url(#未命名的渐变_23-7);}</style><linearGradient id="未命名的渐变_23" x1="22.36" y1="16.66" x2="24.5" y2="16.66" gradientTransform="translate(3.11 -3.67) rotate(9.6)" gradientUnits="userSpaceOnUse"><stop offset="0" stop-color="#f37942"/><stop offset="1" stop-color="#ff4b3b"/></linearGradient><linearGradient id="未命名的渐变_23-2" x1="2.05" y1="8.69" x2="28.42" y2="8.69" gradientTransform="matrix(1, 0, 0, 1, 0, 0)" xlink:href="#未命名的渐变_23"/><linearGradient id="未命名的渐变_23-3" x1="2.76" y1="11.7" x2="28.06" y2="11.7" gradientTransform="matrix(1, 0, 0, 1, 0, 0)" xlink:href="#未命名的渐变_23"/><linearGradient id="未命名的渐变_23-4" x1="16.66" y1="22.63" x2="31" y2="22.63" gradientTransform="matrix(1, 0, 0, 1, 0, 0)" xlink:href="#未命名的渐变_23"/><linearGradient id="未命名的渐变_23-5" x1="0" y1="22.63" x2="14.52" y2="22.63" gradientTransform="matrix(1, 0, 0, 1, 0, 0)" xlink:href="#未命名的渐变_23"/><linearGradient id="未命名的渐变_23-6" x1="13.09" y1="22.63" x2="18.08" y2="22.63" gradientTransform="matrix(1, 0, 0, 1, 0, 0)" xlink:href="#未命名的渐变_23"/><linearGradient id="未命名的渐变_23-7" x1="14.88" y1="18.26" x2="16.3" y2="18.26" gradientTransform="matrix(1, 0, 0, 1, 0, 0)" xlink:href="#未命名的渐变_23"/></defs><title>icon-workspace-selected</title><ellipse class="cls-1" cx="23.43" cy="16.66" rx="1.07" ry="1.06" transform="translate(-2.45 4.14) rotate(-9.6)"/><path class="cls-2" d="M26.64,17.37a.71.71,0,1,1,0-1.42A.36.36,0,0,0,27,15.6V1.77a.36.36,0,0,0-.36-.35H3.83a.36.36,0,0,0-.36.35V15.6a.36.36,0,0,0,.36.35H20.46a.71.71,0,1,1,0,1.42H3.83A1.78,1.78,0,0,1,2,15.6V1.77A1.78,1.78,0,0,1,3.83,0h22.8a1.78,1.78,0,0,1,1.78,1.77V15.6A1.78,1.78,0,0,1,26.64,17.37Z"/><path class="cls-3" d="M27.35,12.41H3.47a.71.71,0,1,1,0-1.42H27.35a.71.71,0,1,1,0,1.42Z"/><path class="cls-4" d="M30.29,23.34H17.37a.71.71,0,1,1,0-1.42H30.29a.71.71,0,1,1,0,1.42Z"/><path class="cls-5" d="M13.81,23.34H.71a.71.71,0,1,1,0-1.42H13.81a.71.71,0,1,1,0,1.42Z"/><path class="cls-6" d="M15.59,26a2.49,2.49,0,0,1-2.49-2.48V21.75a2.49,2.49,0,0,1,5,0v1.77A2.49,2.49,0,0,1,15.59,26Zm0-5.32a1.07,1.07,0,0,0-1.07,1.06v1.77a1.07,1.07,0,0,0,2.14,0V21.75A1.07,1.07,0,0,0,15.59,20.68Z"/><path class="cls-7" d="M15.59,20.56a.71.71,0,0,1-.71-.71V16.66a.71.71,0,0,1,1.43,0v3.19A.71.71,0,0,1,15.59,20.56Z"/></svg>