<?xml version="1.0" standalone="no"?><!DOCTYPE svg PUBLIC "-//W3C//DTD SVG 1.1//EN" "http://www.w3.org/Graphics/SVG/1.1/DTD/svg11.dtd"><svg t="1574818818207" class="icon" viewBox="0 0 1024 1024" version="1.1" xmlns="http://www.w3.org/2000/svg" p-id="3969" xmlns:xlink="http://www.w3.org/1999/xlink" width="200" height="200"><defs><style type="text/css"></style></defs><path d="M1023.868314 284.95872c0-8.8064-1.18784-17.48992-5.36576-25.51808-10.36288-19.92704-27.11552-28.99968-49.17248-28.99968H716.873114l2.31424-3.60448c24.80128-37.80608 30.35136-78.17216 14.11072-120.46336-26.15296-68.07552-102.31808-97.09568-166.6048-71.0656-20.15232 8.15104-37.4784 20.39808-51.07712 37.49888-3.072 3.87072-4.97664 3.56352-7.35232-0.22528-0.4096-0.67584-0.98304-1.24928-1.51552-1.8432-33.09568-36.51584-74.24-51.32288-122.49088-42.33216-61.952 11.55072-104.5504 66.17088-102.42048 129.14688 0.90112 26.4192 9.50272 50.33984 25.37472 72.9088h-7.45472c-81.75616 0-163.51232-0.02048-245.28896 0.02048-31.98976 0-54.1696 21.52448-54.29248 53.51424C-0.090726 349.73696 0.134554 415.49824 0.032154 481.28c0 3.87072 0.96256 5.16096 4.99712 5.05856 12.98432-0.26624 26.0096 0.22528 38.97344-0.24576 5.87776-0.22528 7.55712 1.1264 7.53664 7.35232-0.2048 149.72928-0.14336 299.43808-0.16384 449.18784 0 9.29792 1.06496 18.35008 5.4272 26.70592 10.52672 20.11136 27.60704 28.83584 49.90976 28.83584 197.69344-0.04096 395.42784-0.04096 593.12128-0.04096l217.68192 0.02048c9.09312 0 17.98144-1.10592 26.13248-5.34528 19.90656-10.32192 28.99968-27.11552 28.99968-49.19296v-308.8384c0-47.59552 0.06144-95.15008-0.12288-142.7456-0.02048-4.7104 1.18784-6.0416 5.91872-5.91872 13.18912 0.36864 26.37824-0.08192 39.56736 0.24576 4.64896 0.1024 6.0416-1.08544 6.02112-5.91872-0.16384-65.16736-0.08192-130.31424-0.16384-195.4816zM397.897114 77.88544c48.61952-6.90176 87.79776 27.09504 88.59648 76.94336 0.16384 10.58816 0.02048 21.17632 0.02048 31.76448 0 13.18912-0.1024 26.35776 0.08192 39.54688 0.04096 3.3792-0.96256 4.38272-4.36224 4.36224-25.35424-0.16384-50.74944 0.3072-76.10368-0.26624-38.83008-0.88064-70.94272-31.96928-72.88832-69.7344-2.21184-43.33568 24.00256-76.86144 64.65536-82.61632z m81.83808 869.08928c-123.51488-0.14336-247.05024-0.12288-370.54464 0-4.97664 0-6.67648-0.75776-6.67648-6.36928 0.18432-149.27872 0.16384-298.5984 0.02048-447.8976 0-5.20192 1.14688-6.59456 6.53312-6.59456 123.51488 0.16384 247.02976 0.18432 370.54464-0.02048 6.06208-0.02048 7.04512 1.8432 7.02464 7.3728-0.18432 74.3424-0.12288 148.70528-0.12288 223.04768 0 74.5472-0.06144 149.0944 0.14336 223.66208 0.02048 5.57056-1.51552 6.81984-6.92224 6.79936z m6.92224-518.92224c0.02048 5.61152-1.1264 7.33184-7.08608 7.33184-70.36928-0.24576-140.6976-0.16384-211.06688-0.16384s-140.71808-0.06144-211.06688 0.12288c-5.03808 0.02048-6.20544-1.31072-6.18496-6.2464 0.18432-47.16544 0.2048-94.33088-0.02048-141.49632 0-5.2224 1.57696-6.00064 6.3488-6.00064 140.6976 0.14336 281.3952 0.14336 422.11328 0 5.28384 0 7.00416 1.08544 6.9632 6.77888a12701.0816 12701.0816 0 0 0 0 139.6736z m51.5072-281.31328c2.70336-38.0928 32.0512-66.90816 69.79584-69.65248 39.19872-2.8672 72.45824 21.17632 81.22368 58.71616 11.34592 48.64-23.49056 93.5936-73.4208 94.55616-11.776 0.22528-23.57248 0.04096-35.36896 0.04096v0.02048h-38.33856c-2.41664 0-4.68992 0.43008-4.62848-3.44064 0.47104-26.7264-1.1264-53.53472 0.73728-80.24064z m383.20128 570.08128c0 74.56768-0.06144 149.11488 0.14336 223.66208 0 5.26336-1.20832 6.53312-6.51264 6.53312-123.51488-0.18432-247.02976-0.2048-370.54464 0-5.98016 0-7.0656-1.67936-7.0656-7.29088 0.16384-148.70528 0.16384-297.39008-0.02048-446.09536 0-6.0416 1.39264-7.53664 7.49568-7.51616 123.12576 0.2048 246.21056 0.18432 369.33632 0.02048 5.61152 0 7.33184 1.08544 7.31136 7.0656-0.22528 74.5472-0.14336 149.07392-0.14336 223.62112z m51.4048-287.66208c0.02048 4.93568-1.2288 6.20544-6.22592 6.20544-70.5536-0.18432-141.1072-0.12288-211.6608-0.12288-70.144 0-140.30848-0.04096-210.45248 0.1024-5.16096 0.02048-7.10656-0.86016-7.0656-6.69696 0.26624-46.96064 0.24576-93.94176 0.02048-140.9024-0.02048-5.18144 1.57696-6.144 6.38976-6.144 140.9024 0.12288 281.8048 0.12288 422.72768 0 4.79232 0 6.32832 0.86016 6.30784 6.0416a14172.09856 14172.09856 0 0 0-0.04096 141.5168z" p-id="3970"></path></svg>