<svg id="图层_1" data-name="图层 1" xmlns="http://www.w3.org/2000/svg" xmlns:xlink="http://www.w3.org/1999/xlink" viewBox="0 0 39.07 39.07"><defs><style>.cls-2{fill:#fff8f2;}</style><linearGradient id="未命名的渐变_6" y1="19.54" x2="39.07" y2="19.54" gradientUnits="userSpaceOnUse"><stop offset="0" stop-color="#fb593d"/><stop offset="1" stop-color="#f38542"/></linearGradient></defs><title>画板 370</title><path class="cls-1" d="M0,19.54A19.54,19.54,0,1,0,19.54,0,19.53,19.53,0,0,0,0,19.54Zm0,0"/><path class="cls-2" d="M32.72,16.31a3.32,3.32,0,0,1-6.64,0,3.24,3.24,0,0,1-3.32,3.22,3.19,3.19,0,0,1-3.22-3.22,3.32,3.32,0,0,1-6.64,0,3.24,3.24,0,0,1-3.32,3.22,3.27,3.27,0,0,1-3.32-3.22l2.3-6.06H30.13Z"/><path class="cls-2" d="M29.06,9.28H11A1.24,1.24,0,0,1,9.77,8.06,1.28,1.28,0,0,1,11,6.84H29a1.22,1.22,0,0,1,0,2.44Z"/><path class="cls-2" d="M28.42,32.58H10.65a2.26,2.26,0,0,1-2.25-2.25V21.65H10.3v8.67a.35.35,0,0,0,.35.35H28.42a.35.35,0,0,0,.35-.35V21.82h1.91v8.51A2.26,2.26,0,0,1,28.42,32.58Z"/></svg>