<svg id="图层_1" data-name="图层 1" xmlns="http://www.w3.org/2000/svg" xmlns:xlink="http://www.w3.org/1999/xlink" viewBox="0 0 31 26"><defs><style>.cls-1{fill:url(#未命名的渐变_23);}.cls-2{fill:url(#未命名的渐变_23-2);}.cls-3{fill:url(#未命名的渐变_23-3);}.cls-4{fill:url(#未命名的渐变_23-4);}</style><linearGradient id="未命名的渐变_23" x1="5.7" y1="7.06" x2="19.24" y2="7.06" gradientUnits="userSpaceOnUse"><stop offset="0" stop-color="#f37942"/><stop offset="1" stop-color="#ff4b3b"/></linearGradient><linearGradient id="未命名的渐变_23-2" x1="0" y1="19.41" x2="25.3" y2="19.41" xlink:href="#未命名的渐变_23"/><linearGradient id="未命名的渐变_23-3" x1="20.67" y1="6.87" x2="26.55" y2="6.87" xlink:href="#未命名的渐变_23"/><linearGradient id="未命名的渐变_23-4" x1="20.8" y1="15.95" x2="31" y2="15.95" xlink:href="#未命名的渐变_23"/></defs><title>icon-customer-selected</title><path class="cls-1" d="M12.47,14.11A6.93,6.93,0,0,1,5.7,7.06,6.93,6.93,0,0,1,12.47,0a6.93,6.93,0,0,1,6.77,7.06A6.93,6.93,0,0,1,12.47,14.11Zm0-12.63A5.47,5.47,0,0,0,7.13,7.06a5.47,5.47,0,0,0,5.34,5.57,5.47,5.47,0,0,0,5.34-5.57A5.47,5.47,0,0,0,12.47,1.49Z"/><path class="cls-2" d="M24.59,26a.73.73,0,0,1-.71-.74,11.11,11.11,0,0,0-11.22-11,11.11,11.11,0,0,0-11.22,11A.73.73,0,0,1,.71,26,.73.73,0,0,1,0,25.26,12.56,12.56,0,0,1,12.65,12.81,12.56,12.56,0,0,1,25.3,25.26.73.73,0,0,1,24.59,26Z"/><path class="cls-3" d="M21.38,12.26a.74.74,0,0,1,0-1.49,3.83,3.83,0,0,0,3.74-3.9A3.83,3.83,0,0,0,21.38,3a.73.73,0,0,1-.71-.74.73.73,0,0,1,.71-.74,5.29,5.29,0,0,1,5.17,5.39A5.29,5.29,0,0,1,21.38,12.26Z"/><path class="cls-4" d="M30.29,21a.73.73,0,0,1-.71-.74,8,8,0,0,0-8.06-7.86.74.74,0,0,1,0-1.49A9.43,9.43,0,0,1,31,20.25.73.73,0,0,1,30.29,21Z"/></svg>