<svg id="图层_1" data-name="图层 1" xmlns="http://www.w3.org/2000/svg" xmlns:xlink="http://www.w3.org/1999/xlink" viewBox="0 0 29.07 29.07"><defs><style></style><linearGradient id="未命名的渐变_28" y1="14.53" x2="29.07" y2="14.53" gradientUnits="userSpaceOnUse"><stop offset="0" stop-color="#f38542"/><stop offset="1" stop-color="#fb593d"/></linearGradient><linearGradient id="未命名的渐变_28-2" x1="7.57" y1="13.64" x2="27.95" y2="13.64" xlink:href="#未命名的渐变_28"/><linearGradient id="未命名的渐变_28-3" x1="11.91" y1="16.63" x2="18.2" y2="16.63" xlink:href="#未命名的渐变_28"/></defs><title>画板 359</title><path class="cls-1" d="M28.63,11a.88.88,0,0,0-1.71.43,12.79,12.79,0,1,1-5.7-7.78.88.88,0,1,0,.94-1.49h0A14.53,14.53,0,1,0,28.63,11Zm0,0"/><path class="cls-2" d="M25.44,8.43h.06c1,0,2.45-1.63,2.45-1.63S26.66,5.08,25.72,5h-.14a1.72,1.72,0,0,0-.14,3.44Zm-3,.45c0-.09-.07-.24-.33-.47l-.2-.2a3.83,3.83,0,0,0-1.33-.87c-.18,0-.42.29-.73.87-.22.36-.38.53-.47.53h-4c.8-.67.87-1.33.2-2a2.72,2.72,0,0,0-1.07-.33,2.67,2.67,0,0,0-1.2.07.81.81,0,0,0,.2.4,1.9,1.9,0,0,1,.47.87c0,.58.13.91.4,1H7.79c-.18,0-.24,0-.2.13a.58.58,0,0,0,.4.2h2.87a2.46,2.46,0,0,1,1,2c0,.53.15.87.47,1H10.85a1.92,1.92,0,0,1-.47-.27c-1.2-.67-1.8-.78-1.8-.33V21.2c0,.4.24.58.73.53.71,0,1-.36,1-.93V16.74q2.6-1.8,3.26-2.13a2.26,2.26,0,0,1,.8-.33c.18,0,.27-.09.27-.13q.13-.33-1.4-1c-.09-.09-.15-.13-.2-.13-.4-.27-.67-.09-.8.53a9.3,9.3,0,0,1-1.93,2.87V13a.6.6,0,0,1,.53-.6h7.8v6.86q.26,1.27-1.53,1a2.46,2.46,0,0,0-.87.07c0,.09.2.18.6.27a1.33,1.33,0,0,1,1,1.2c0,.36.27.51.67.47q2.4-.06,2.06-2.6v-6.4s.09-.15.27-.33.4-.31.4-.4a3.25,3.25,0,0,0-1.86-1.47c-.09,0-.27.15-.53.47s-.47.53-.6.53H16a6.47,6.47,0,0,1,2.2-1.67q.4-.2.4-.33Q18.9,9.74,16.78,9h4.93c.41,0,.65,0,.74-.13Zm-6.86,2.33a7.28,7.28,0,0,1-.13.87h-2.2a1.52,1.52,0,0,0,.67-1.2q0-1.27-2.13-1.8H16q-.13.6-.4,2.13Zm0,0"/><path class="cls-3" d="M16,20c.8,0,1.15-.24,1.07-.6V17c0-.09.09-.2.27-.33s.2-.15.2-.2-.15-.38-.47-.6a1.44,1.44,0,0,0,1.07-1.07c.09-.44-.13-.84-.67-1.2a4.13,4.13,0,0,0-2.87-.47s.09.11.27.2a2.9,2.9,0,0,1,.93.8,1.71,1.71,0,0,1,.2.67,2.62,2.62,0,0,0,.27.6q-.4-.4-1.07.33c-.13.13-.22.2-.27.2h-1.2a2.68,2.68,0,0,1-.47-.13c-.93-.31-1.4-.24-1.4.2v3.8c0,.31.11.45.47.4.93-.09,1.35-.31,1.27-.67v-.47h1.73v.53c0,.31.22.45.67.4Zm-2.4-1.2V16.74c0-.31.18-.47.53-.47h1.2V18.8Zm0,0"/></svg>