<svg id="图层_1" data-name="图层 1" xmlns="http://www.w3.org/2000/svg" viewBox="0 0 45 45"><defs><style>.cls-2{fill:#666;}</style></defs><title>xiaoshoufewnxi</title><path class="cls-1" d="M4.08,44A1.07,1.07,0,0,1,3,42.92V33.58a1.07,1.07,0,1,1,2.14,0v9.34A1.07,1.07,0,0,1,4.08,44Z"/><path class="cls-1" d="M13.16,44a1.07,1.07,0,0,1-1.07-1.07V25.57a1.07,1.07,0,1,1,2.14,0V42.92A1.07,1.07,0,0,1,13.16,44Z"/><path class="cls-1" d="M31.84,44a1.07,1.07,0,0,1-1.07-1.07V27.17a1.07,1.07,0,1,1,2.14,0V42.92A1.07,1.07,0,0,1,31.84,44Z"/><path class="cls-1" d="M41.19,44.25a1.07,1.07,0,0,1-1.07-1.07V17a1.07,1.07,0,0,1,2.14,0V43.19A1.07,1.07,0,0,1,41.19,44.25Z"/><path class="cls-1" d="M22.77,44a1.07,1.07,0,0,1-1.07-1.07V29.31a1.07,1.07,0,0,1,2.14,0V42.92A1.07,1.07,0,0,1,22.77,44Z"/><path class="cls-2" d="M3.81,27.7a1.07,1.07,0,0,1-.75-1.82L15.34,13.6a1.07,1.07,0,0,1,1.51,0l4.6,4.6L33,7.18a1.07,1.07,0,0,1,1.48,1.54L22.17,20.47a1.07,1.07,0,0,1-1.49,0l-4.58-4.58L4.57,27.39A1.06,1.06,0,0,1,3.81,27.7Z"/><path class="cls-2" d="M38.25,12a1.07,1.07,0,0,1-.72-.28L30.58,5.27A1.07,1.07,0,0,1,31,3.46L39.53.79A1.07,1.07,0,0,1,40.9,2l-1.6,9.08a1.07,1.07,0,0,1-1.05.88Zm-4.86-7,4.15,3.83,1-5.42Z"/></svg>