<svg id="图层_1" data-name="图层 1"
    xmlns="http://www.w3.org/2000/svg" viewBox="0 0 54 46">
    <defs>
        <style>.cls-1{fill:#666;}</style>
    </defs>
    <title>campaignGroupBuy</title>
    <path class="cls-1" d="M43.84,44.25H10.16a2.71,2.71,0,0,1-2.7-2.7.53.53,0,0,1,0-.13l3-28a2.7,2.7,0,0,1,2.7-2.62H40.83a2.7,2.7,0,0,1,2.7,2.62l3,28a.53.53,0,0,1,0,.13A2.71,2.71,0,0,1,43.84,44.25Zm-34-2.66a.31.31,0,0,0,.3.26H43.84a.31.31,0,0,0,.3-.26l-3-28a.49.49,0,0,1,0-.12.31.31,0,0,0-.31-.31H13.17a.31.31,0,0,0-.31.31.49.49,0,0,1,0,.12Z"/>
    <path class="cls-1" d="M34.82,20.64a1.2,1.2,0,0,1-1.2-1.2V10.52a6.37,6.37,0,1,0-12.74,0v8.92a1.2,1.2,0,1,1-2.39,0V10.52a8.76,8.76,0,1,1,17.52,0v8.92A1.19,1.19,0,0,1,34.82,20.64Z"/>
    <circle class="cls-2" cx="19.68" cy="19.6" r="2"/>
    <circle class="cls-2" cx="34.82" cy="19.6" r="2"/>
</svg>
