<?xml version="1.0" standalone="no"?><!DOCTYPE svg PUBLIC "-//W3C//DTD SVG 1.1//EN" "http://www.w3.org/Graphics/SVG/1.1/DTD/svg11.dtd"><svg t="1571877845100" class="icon" viewBox="0 0 1024 1024" version="1.1" xmlns="http://www.w3.org/2000/svg" p-id="2265" xmlns:xlink="http://www.w3.org/1999/xlink" width="64" height="64"><defs><style type="text/css"></style></defs><path d="M512.34133333 516.20977778c-119.58044445 0-232.67555555-23.89333333-318.23644444-67.35644445-93.41155555-47.44533333-144.95288889-113.43644445-144.95288889-185.68533333 0-72.24888889 51.42755555-138.24 144.95288889-185.68533333 85.67466667-43.46311111 198.656-67.35644445 318.23644444-67.35644445s232.67555555 23.89333333 318.35022222 67.35644445c93.41155555 47.44533333 144.95288889 113.43644445 144.9528889 185.68533333 0 72.24888889-51.42755555 138.24-144.9528889 185.68533333-85.67466667 43.34933333-198.76977778 67.35644445-318.35022222 67.35644445z m0-433.37955556c-108.43022222 0-209.69244445 21.16266667-285.35466666 59.50577778-66.78755555 33.90577778-105.13066667 77.93777778-105.13066667 120.71822222s38.34311111 86.81244445 105.13066667 120.71822223C302.64888889 422.11555555 403.91111111 443.27822222 512.34133333 443.27822222c108.43022222 0 209.69244445-21.16266667 285.35466667-59.50577777 66.78755555-33.90577778 105.13066667-77.93777778 105.13066667-120.71822223s-38.34311111-86.81244445-105.13066667-120.71822222c-75.66222222-38.34311111-177.03822222-59.50577778-285.35466667-59.50577778z" p-id="2266"></path><path d="M512.34133333 762.76622222c-119.58044445 0-232.67555555-23.89333333-318.23644444-67.35644444-93.41155555-47.44533333-144.95288889-113.43644445-144.95288889-185.68533333 0-25.25866667 6.37155555-50.06222222 19.00088889-73.84177778 9.44355555-17.74933333 31.51644445-24.46222222 49.26577778-15.01866667 17.74933333 9.44355555 24.46222222 31.51644445 15.01866666 49.26577778-6.94044445 13.08444445-10.46755555 26.39644445-10.46755555 39.59466667 0 42.78044445 38.34311111 86.81244445 105.13066667 120.71822222 75.66222222 38.34311111 176.92444445 59.50577778 285.35466666 59.50577778 108.43022222 0 209.69244445-21.16266667 285.35466667-59.50577778 66.78755555-33.90577778 105.13066667-77.93777778 105.13066667-120.71822222 0-13.19822222-3.52711111-26.51022222-10.46755556-39.59466667-9.44355555-17.74933333-2.73066667-39.82222222 15.01866666-49.26577778 17.74933333-9.44355555 39.82222222-2.73066667 49.26577778 15.01866667 12.62933333 23.66577778 19.00088889 48.58311111 19.00088889 73.728 0 72.24888889-51.42755555 138.24-144.95288889 185.68533333-85.78844445 43.57688889-198.88355555 67.47022222-318.464 67.47022222z" p-id="2267"></path><path d="M512.34133333 1009.20888889c-119.58044445 0-232.67555555-23.89333333-318.23644444-67.35644444-93.41155555-47.44533333-144.95288889-113.43644445-144.95288889-185.68533334 0-25.25866667 6.37155555-50.06222222 19.00088889-73.84177778 9.44355555-17.74933333 31.51644445-24.46222222 49.26577778-15.01866666 17.74933333 9.44355555 24.46222222 31.51644445 15.01866666 49.26577778-6.94044445 13.08444445-10.46755555 26.39644445-10.46755555 39.59466666 0 42.78044445 38.34311111 86.81244445 105.13066667 120.71822222C302.53511111 915.22844445 403.91111111 936.39111111 512.34133333 936.39111111c108.43022222 0 209.69244445-21.16266667 285.35466667-59.50577778 66.78755555-33.90577778 105.13066667-77.93777778 105.13066667-120.71822222 0-13.19822222-3.52711111-26.51022222-10.46755556-39.59466666-9.44355555-17.74933333-2.73066667-39.82222222 15.01866667-49.26577778 17.74933333-9.44355555 39.82222222-2.73066667 49.26577777 15.01866666 12.62933333 23.66577778 19.00088889 48.58311111 19.0008889 73.84177778 0 72.24888889-51.42755555 138.24-144.9528889 185.68533334C745.01688889 985.31555555 631.92177778 1009.20888889 512.34133333 1009.20888889z" p-id="2268"></path></svg>