<svg id="图层_1" data-name="图层 1"
    xmlns="http://www.w3.org/2000/svg" viewBox="0 0 54 46">
    <defs>
        <style>.cls-1{fill:#666;}</style>
    </defs>
    <title>campaignPayGift</title>
    <path class="cls-1" d="M10.88,38.85a.88.88,0,0,1-.58-.21.91.91,0,0,1-.29-1,16,16,0,0,0,1-4.24c-4.65-2.85-7.32-6.87-7.32-11.06C3.65,14,14.13,7.15,27,7.15S50.35,14,50.35,22.34,39.87,37.52,27,37.52A33.77,33.77,0,0,1,16.85,36a27.83,27.83,0,0,0-5.51,2.7A.84.84,0,0,1,10.88,38.85ZM27,9C15.14,9,5.48,15,5.48,22.34,5.48,26,7.83,29.39,12.1,32c.34.2,1.16.69.31,4.06,3.84-2.09,4.62-1.85,4.91-1.76A31.93,31.93,0,0,0,27,35.69c11.87,0,21.52-6,21.52-13.35S38.87,9,27,9Z"/>
    <path class="cls-2" d="M24.2,29.14a.85.85,0,0,1-.57-.23l-6.06-5.82a.84.84,0,0,1,0-1.17.82.82,0,0,1,1.17,0l5.54,5.33L37.46,17a.83.83,0,0,1,1,1.31L24.71,29A.87.87,0,0,1,24.2,29.14Z"/>
</svg>
