<svg id="图层_1" data-name="图层 1"
    xmlns="http://www.w3.org/2000/svg" viewBox="0 0 45 45">
    <defs>
        <style>.cls-1,.cls-3{fill:none;stroke-linecap:round;stroke-linejoin:round;stroke-width:2.08px;}.cls-1{stroke:#666;}.cls-2{fill:#666;}.cls-3{}</style>
    </defs>
    <title>SaaS_01</title>
    <path class="cls-1" d="M20.32,43.17H3.2a1.7,1.7,0,0,1-1.7-1.7V4.57a1.7,1.7,0,0,1,1.7-1.7H11"/>
    <path class="cls-1" d="M29.17,2.87h8.66a1.7,1.7,0,0,1,1.7,1.7V17.44"/>
    <circle class="cls-2" cx="26.47" cy="43.17" r="1.7"/>
    <rect class="cls-1" x="13.42" y="1.16" width="13.06" height="5.68" rx="2.7" ry="2.7"/>
    <line class="cls-1" x1="8.31" y1="14.79" x2="32.72" y2="14.79"/>
    <line class="cls-1" x1="8.31" y1="30.68" x2="22.5" y2="30.68"/>
    <path class="cls-3" d="M29.6,25.57h5.11a8.82,8.82,0,0,1,8.79,8.8h0a8.82,8.82,0,0,1-8.79,8.8"/>
    <polyline class="cls-3" points="32.56 20.31 27.74 25.13 32.31 29.7"/>
</svg>
