<svg id="图层_1" data-name="图层 1" xmlns="http://www.w3.org/2000/svg" viewBox="0 0 31 26"><defs><style></style></defs><title>icon-workspace</title><ellipse class="cls-1" cx="23.43" cy="16.66" rx="1.07" ry="1.06" transform="translate(-2.45 4.14) rotate(-9.6)"/><path class="cls-1" d="M26.64,17.37a.71.71,0,1,1,0-1.42A.36.36,0,0,0,27,15.6V1.77a.36.36,0,0,0-.36-.35H3.83a.36.36,0,0,0-.36.35V15.6a.36.36,0,0,0,.36.35H20.46a.71.71,0,1,1,0,1.42H3.83A1.78,1.78,0,0,1,2,15.6V1.77A1.78,1.78,0,0,1,3.83,0h22.8a1.78,1.78,0,0,1,1.78,1.77V15.6A1.78,1.78,0,0,1,26.64,17.37Z"/><path class="cls-1" d="M27.35,12.41H3.47a.71.71,0,1,1,0-1.42H27.35a.71.71,0,1,1,0,1.42Z"/><path class="cls-1" d="M30.29,23.34H17.37a.71.71,0,1,1,0-1.42H30.29a.71.71,0,1,1,0,1.42Z"/><path class="cls-1" d="M13.81,23.34H.71a.71.71,0,1,1,0-1.42H13.81a.71.71,0,1,1,0,1.42Z"/><path class="cls-1" d="M15.59,26a2.49,2.49,0,0,1-2.49-2.48V21.75a2.49,2.49,0,0,1,5,0v1.77A2.49,2.49,0,0,1,15.59,26Zm0-5.32a1.07,1.07,0,0,0-1.07,1.06v1.77a1.07,1.07,0,0,0,2.14,0V21.75A1.07,1.07,0,0,0,15.59,20.68Z"/><path class="cls-1" d="M15.59,20.56a.71.71,0,0,1-.71-.71V16.66a.71.71,0,0,1,1.43,0v3.19A.71.71,0,0,1,15.59,20.56Z"/></svg>