<svg id="图层_1" data-name="图层 1" xmlns="http://www.w3.org/2000/svg" viewBox="0 0 31.08 28.1"><defs><style></style></defs><path class="cls-1" d="M17,3.55H13.42a2.6,2.6,0,0,0-2.69,2.51,2.6,2.6,0,0,0,2.69,2.51H17a2.6,2.6,0,0,0,2.69-2.51A2.6,2.6,0,0,0,17,3.55Zm0,8.38H13.42a2.6,2.6,0,0,0-2.69,2.51,2.6,2.6,0,0,0,2.69,2.51H17a2.6,2.6,0,0,0,2.69-2.51A2.6,2.6,0,0,0,17,11.93Zm0,8.38H13.42a2.51,2.51,0,1,0,0,5H17a2.5,2.5,0,1,0,0-5ZM7.15,21.94A3.47,3.47,0,0,1,3.57,18.6a3.47,3.47,0,0,1,3.58-3.34H8.93V13.58H7.15a5.21,5.21,0,0,0-5.37,5,5.21,5.21,0,0,0,5.37,5v1.67L9.8,22.77,7.11,20.27v1.67ZM23.26,5.23H21.49V6.92h1.77a3.63,3.63,0,0,1,3.1,1.67,3.15,3.15,0,0,1,0,3.34,3.63,3.63,0,0,1-3.1,1.67V11.92l-2.69,2.51,2.69,2.51V15.25a5.47,5.47,0,0,0,4.82-2.45,4.73,4.73,0,0,0,0-5.12,5.47,5.47,0,0,0-4.82-2.45Zm0,0"/><path class="cls-1" d="M24.48,28.1H6.61C3,28.1,0,25.43,0,22.13V6c0-3.3,3-6,6.61-6H24.48c3.65,0,6.61,2.68,6.61,6V22.14c0,3.3-3,6-6.61,6ZM6.61.39A6.53,6.53,0,0,0,2.24,2,5.33,5.33,0,0,0,.43,6V22.14c0,3.08,2.78,5.57,6.18,5.57H24.48a5.91,5.91,0,0,0,6.16-5.57V6C30.63,2.9,27.88.4,24.48.39Zm0,0"/></svg>