<svg id="图层_1" data-name="图层 1" xmlns="http://www.w3.org/2000/svg" xmlns:xlink="http://www.w3.org/1999/xlink" viewBox="0 0 31 26"><defs><style>.cls-1{fill:url(#未命名的渐变_23);}.cls-2{fill:url(#未命名的渐变_23-2);}.cls-3{fill:url(#未命名的渐变_23-3);}.cls-4{fill:url(#未命名的渐变_23-4);}.cls-5{fill:url(#未命名的渐变_23-5);}.cls-6{fill:url(#未命名的渐变_23-6);}.cls-7{fill:url(#未命名的渐变_23-7);}</style><linearGradient id="未命名的渐变_23" x1="17.27" y1="14.94" x2="25.64" y2="14.94" gradientUnits="userSpaceOnUse"><stop offset="0" stop-color="#f37942"/><stop offset="1" stop-color="#ff4b3b"/></linearGradient><linearGradient id="未命名的渐变_23-2" x1="14.02" y1="21.92" x2="29.09" y2="21.92" xlink:href="#未命名的渐变_23"/><linearGradient id="未命名的渐变_23-3" x1="0" y1="15.29" x2="2.21" y2="15.29" xlink:href="#未命名的渐变_23"/><linearGradient id="未命名的渐变_23-4" x1="0.37" y1="13" x2="31" y2="13" xlink:href="#未命名的渐变_23"/><linearGradient id="未命名的渐变_23-5" x1="2.95" y1="6.5" x2="12.92" y2="6.5" xlink:href="#未命名的渐变_23"/><linearGradient id="未命名的渐变_23-6" x1="2.95" y1="12.62" x2="9.96" y2="12.62" xlink:href="#未命名的渐变_23"/><linearGradient id="未命名的渐变_23-7" x1="2.95" y1="9.56" x2="15.13" y2="9.56" xlink:href="#未命名的渐变_23"/></defs><title>icon-account-selected</title><path class="cls-1" d="M21.46,19.27a4.34,4.34,0,1,1,4.19-4.34A4.27,4.27,0,0,1,21.46,19.27Zm0-7.15a2.81,2.81,0,1,0,2.71,2.81A2.76,2.76,0,0,0,21.46,12.13Z"/><path class="cls-2" d="M28.36,26a.75.75,0,0,1-.74-.76,6.06,6.06,0,0,0-12.12,0,.74.74,0,1,1-1.48,0,7.54,7.54,0,0,1,15.07,0A.75.75,0,0,1,28.36,26Z"/><path class="cls-3" d="M1.29,16.43A1.11,1.11,0,0,1,0,15.48a1.14,1.14,0,0,1,.91-1.32,1.11,1.11,0,0,1,1.28.94A1.14,1.14,0,0,1,1.29,16.43Z"/><path class="cls-4" d="M29.15,26H2.21A1.88,1.88,0,0,1,.37,24.09V18.93a.75.75,0,0,1,.74-.76.75.75,0,0,1,.74.76v5.16a.38.38,0,0,0,.37.38H29.15a.38.38,0,0,0,.37-.38V1.91a.38.38,0,0,0-.37-.38H2.21a.38.38,0,0,0-.37.38v9.56a.75.75,0,0,1-.74.76.75.75,0,0,1-.74-.76V1.91A1.88,1.88,0,0,1,2.21,0H29.15A1.88,1.88,0,0,1,31,1.91V24.09A1.88,1.88,0,0,1,29.15,26Z"/><path class="cls-5" d="M12.18,7.26H3.69a.77.77,0,0,1,0-1.53h8.49a.77.77,0,0,1,0,1.53Z"/><path class="cls-6" d="M9.23,13.38H3.69a.77.77,0,0,1,0-1.53H9.23a.77.77,0,0,1,0,1.53Z"/><path class="cls-7" d="M14.39,10.32H3.69a.77.77,0,0,1,0-1.53h10.7a.77.77,0,0,1,0,1.53Z"/></svg>