<svg id="图层_1" data-name="图层 1" xmlns="http://www.w3.org/2000/svg" xmlns:xlink="http://www.w3.org/1999/xlink" viewBox="0 0 28.65 28.65"><defs><style></style><linearGradient id="未命名的渐变_28" y1="14.33" x2="28.65" y2="14.33" gradientUnits="userSpaceOnUse"><stop offset="0" stop-color="#f38542"/><stop offset="1" stop-color="#fb593d"/></linearGradient><linearGradient id="未命名的渐变_28-2" x1="5.2" y1="14.04" x2="23.26" y2="14.04" xlink:href="#未命名的渐变_28"/><linearGradient id="未命名的渐变_28-3" x1="8.27" y1="10.97" x2="20.01" y2="10.97" xlink:href="#未命名的渐变_28"/></defs><title>画板 363</title><path class="cls-1" d="M28.22,10.85a.87.87,0,0,0-1.68.42,12.61,12.61,0,1,1-5.61-7.67.87.87,0,1,0,.92-1.47h0a14.32,14.32,0,1,0,6.39,8.73Zm0,0"/><path class="cls-2" d="M19.65,5.91H8.9A1.88,1.88,0,0,0,7,7.17L5.38,11.06v.09a4.54,4.54,0,0,0-.18,1.08,3.54,3.54,0,0,0,1.9,3.16,3.44,3.44,0,0,0,1.72.36,3.39,3.39,0,0,0,2.71-1.26,3.54,3.54,0,0,0,5.42,0,3.39,3.39,0,0,0,2.71,1.26,4.81,4.81,0,0,0,1.72-.36,3.54,3.54,0,0,0,1.9-3.16,4.53,4.53,0,0,0-.18-1.08v-.09L21.54,7.26a1.92,1.92,0,0,0-1.9-1.35m0,.9a1.15,1.15,0,0,1,1.08.63v.09l1.45,3.79v.09a1.34,1.34,0,0,1,.18.81A2.7,2.7,0,0,1,21,14.58a2.89,2.89,0,0,1-1.26.27,2.94,2.94,0,0,1-2.08-.9,1.11,1.11,0,0,0-.72-.36.82.82,0,0,0-.72.36,3,3,0,0,1-2,1,2.94,2.94,0,0,1-2.08-.9.58.58,0,0,0-.63-.45.82.82,0,0,0-.72.36,2.7,2.7,0,0,1-2.08,1,2.89,2.89,0,0,1-1.26-.27A3,3,0,0,1,6.1,12.23a2.5,2.5,0,0,1,.09-.81v-.09L7.9,7.54V7.44c.09-.45.45-.63,1-.63H19.65M20,22.17H8.27a1.91,1.91,0,0,1-1.9-1.9V16.75a.45.45,0,1,1,.9,0v3.61a1,1,0,0,0,1,1H20a1,1,0,0,0,1-1V16.84a.45.45,0,0,1,.9,0v3.52A2,2,0,0,1,20,22.17"/><path class="cls-3" d="M19.56,10.52H8.72a.45.45,0,0,0,0,.9H19.56A.43.43,0,0,0,20,11a.58.58,0,0,0-.45-.45"/></svg>