<svg id="图层_1" data-name="图层 1" xmlns="http://www.w3.org/2000/svg" viewBox="0 0 26 31"><defs><style></style></defs><title>icon-commodity</title><ellipse class="cls-1" cx="16.6" cy="29.91" rx="1.01" ry="1.09"/><ellipse class="cls-1" cx="7.85" cy="12.76" rx="1.35" ry="1.46"/><ellipse class="cls-1" cx="18.29" cy="12.76" rx="1.35" ry="1.46"/><path class="cls-1" d="M24.32,30.64H20.14a.73.73,0,0,1,0-1.46h4.17a.35.35,0,0,0,.34-.34l-2-20.37s0-.05,0-.08A.36.36,0,0,0,22.29,8H3.71a.36.36,0,0,0-.34.36s0,.05,0,.08l-2,20.37a.35.35,0,0,0,.34.34H13a.73.73,0,0,1,0,1.46H1.68A1.76,1.76,0,0,1,0,28.81s0-.05,0-.08L2,8.34A1.76,1.76,0,0,1,3.71,6.56H22.29A1.76,1.76,0,0,1,24,8.34l2,20.39s0,.05,0,.08A1.76,1.76,0,0,1,24.32,30.64Z"/><path class="cls-1" d="M18.25,13.46a.7.7,0,0,1-.67-.73V6.23a4.61,4.61,0,0,0-4.41-4.78A4.61,4.61,0,0,0,8.76,6.23v6.5a.68.68,0,1,1-1.35,0V6.23A6,6,0,0,1,13.17,0a6,6,0,0,1,5.76,6.23v6.5A.7.7,0,0,1,18.25,13.46Z"/></svg>