<svg id="图层_1" data-name="图层 1" xmlns="http://www.w3.org/2000/svg" viewBox="0 0 31 26"><defs></defs><title>icon-label</title><path class="cls-1" d="M17.6,26A3.8,3.8,0,0,1,15,24.92l-12.29-12a2.15,2.15,0,0,1-.6-2L3.78,3.16A2.12,2.12,0,0,1,5.51,1.51L14.08,0A2.15,2.15,0,0,1,16,.62h0l11.9,11.66A3.76,3.76,0,0,1,29,15a3.81,3.81,0,0,1-1.18,2.73L20.21,25A3.76,3.76,0,0,1,17.6,26ZM14.45,1.52h-.11L5.77,3a.63.63,0,0,0-.51.49L3.54,11.26a.62.62,0,0,0,.18.59L16,23.83a2.27,2.27,0,0,0,3.16,0l7.6-7.2A2.29,2.29,0,0,0,27.48,15a2.25,2.25,0,0,0-.69-1.64L14.89,1.7h0A.62.62,0,0,0,14.45,1.52Z"/><path class="cls-1" d="M11.51,11.9a3.17,3.17,0,1,1,3.17-3.17A3.17,3.17,0,0,1,11.51,11.9Zm0-4.82a1.65,1.65,0,1,0,1.65,1.65A1.65,1.65,0,0,0,11.51,7.08Z"/></svg>