<svg id="图层_1" data-name="图层 1" xmlns="http://www.w3.org/2000/svg" viewBox="0 0 31 26"><defs><style></style></defs><title>icon-account</title><path class="cls-1" d="M21.46,19.27a4.34,4.34,0,1,1,4.19-4.34A4.27,4.27,0,0,1,21.46,19.27Zm0-7.15a2.81,2.81,0,1,0,2.71,2.81A2.76,2.76,0,0,0,21.46,12.13Z"/><path class="cls-1" d="M28.36,26a.75.75,0,0,1-.74-.76,6.06,6.06,0,0,0-12.12,0,.74.74,0,1,1-1.48,0,7.54,7.54,0,0,1,15.07,0A.75.75,0,0,1,28.36,26Z"/><path class="cls-1" d="M1.29,16.43A1.11,1.11,0,0,1,0,15.48a1.14,1.14,0,0,1,.91-1.32,1.11,1.11,0,0,1,1.28.94A1.14,1.14,0,0,1,1.29,16.43Z"/><path class="cls-1" d="M29.15,26H2.21A1.88,1.88,0,0,1,.37,24.09V18.93a.75.75,0,0,1,.74-.76.75.75,0,0,1,.74.76v5.16a.38.38,0,0,0,.37.38H29.15a.38.38,0,0,0,.37-.38V1.91a.38.38,0,0,0-.37-.38H2.21a.38.38,0,0,0-.37.38v9.56a.75.75,0,0,1-.74.76.75.75,0,0,1-.74-.76V1.91A1.88,1.88,0,0,1,2.21,0H29.15A1.88,1.88,0,0,1,31,1.91V24.09A1.88,1.88,0,0,1,29.15,26Z"/><path class="cls-1" d="M12.18,7.26H3.69a.77.77,0,0,1,0-1.53h8.49a.77.77,0,0,1,0,1.53Z"/><path class="cls-1" d="M9.23,13.38H3.69a.77.77,0,0,1,0-1.53H9.23a.77.77,0,0,1,0,1.53Z"/><path class="cls-1" d="M14.39,10.32H3.69a.77.77,0,0,1,0-1.53h10.7a.77.77,0,0,1,0,1.53Z"/></svg>