<svg id="图层_1" data-name="图层 1" xmlns="http://www.w3.org/2000/svg" viewBox="0 0 31 26"><defs></defs><title>icon-worker</title><path class="cls-1" d="M15.56,14.11a7,7,0,1,1,7-7A7,7,0,0,1,15.56,14.11Zm0-12.61A5.57,5.57,0,1,0,21.1,7.06,5.56,5.56,0,0,0,15.56,1.5Z"/><path class="cls-1" d="M24.86,16.33a13.46,13.46,0,0,0-9.12-3.52c-7.23,0-13.11,5.58-13.11,12.43a.74.74,0,0,0,1.48,0c0-6,5.22-10.94,11.63-10.94a12,12,0,0,1,6.73,2Z"/><line class="cls-2" x1="16.73" y1="20.17" x2="27.37" y2="20.17"/><line class="cls-2" x1="16.73" y1="24.97" x2="27.37" y2="24.97"/></svg>