<svg id="图层_1" data-name="图层 1" xmlns="http://www.w3.org/2000/svg" viewBox="0 0 45.27 45.31">
	<defs>
		<style>
			.cls-1{}.cls-2{fill:#666;}
		</style>
	</defs>
	<title>
		jinxiaocunliushuibiao
	</title>
	<circle class="cls-1" cx="43.37" cy="32.88" r="1.7" transform="translate(-4.86 7.65) rotate(-9.55)" />
	<path class="cls-2" d="M20.17,44.81H3A2.84,2.84,0,0,1,.2,42V5A2.84,2.84,0,0,1,3,2.2h7.81a1.14,1.14,0,1,1,0,2.27H3A.58.58,0,0,0,2.47,5V42a.58.58,0,0,0,.57.57H20.17a1.14,1.14,0,1,1,0,2.27Z" />
	<path class="cls-2" d="M39.39,19.06a1.14,1.14,0,0,1-1.14-1.14V5a.58.58,0,0,0-.57-.57H29A1.14,1.14,0,0,1,29,2.2h8.66A2.84,2.84,0,0,1,40.53,5V17.92A1.14,1.14,0,0,1,39.39,19.06Z" />
	<path class="cls-2" d="M23.49,8.45H16.1a4,4,0,1,1,0-8h7.39a4,4,0,1,1,0,8ZM16.1,2.77a1.7,1.7,0,0,0,0,3.41h7.39a1.7,1.7,0,0,0,0-3.41Z" />
	<path class="cls-2" d="M32.58,16.41H8.15a1.14,1.14,0,0,1,0-2.27H32.58a1.14,1.14,0,0,1,0,2.27Z" />
	<path class="cls-2" d="M15.53,32.31H8.15a1.14,1.14,0,0,1,0-2.27h7.39a1.14,1.14,0,0,1,0,2.27Z" />
	<path class="cls-1" d="M32.58,44.81A11.93,11.93,0,1,1,42.82,26.76a1.14,1.14,0,1,1-1.95,1.17,9.66,9.66,0,1,0,.37,9.24,1.14,1.14,0,1,1,2,1A11.87,11.87,0,0,1,32.58,44.81Z" />
	<path class="cls-1" d="M37.12,34.54H30.87a1.14,1.14,0,0,1-1.14-1.14v-6.6a1.14,1.14,0,1,1,2.27,0v5.46h5.11a1.14,1.14,0,0,1,0,2.27Z" />
</svg>
