<svg id="图层_1" data-name="图层 1" xmlns="http://www.w3.org/2000/svg" viewBox="0 0 14.74 13.86"><defs><style></style></defs><title>dx</title><circle class="cls-1" cx="2.99" cy="4.99" r="0.38" transform="translate(-0.79 0.57) rotate(-9.55)"/><circle class="cls-1" cx="5.97" cy="4.99" r="0.38" transform="translate(-0.75 1.06) rotate(-9.55)"/><circle class="cls-1" cx="8.78" cy="4.99" r="0.38" transform="translate(-0.71 1.53) rotate(-9.55)"/><path class="cls-1" d="M.35,11.06A.35.35,0,0,1,0,10.71V.88A.88.88,0,0,1,.88,0h10a.88.88,0,0,1,.88.88V8.42a.88.88,0,0,1-.88.88H2.78L.56,11A.35.35,0,0,1,.35,11.06ZM.88.7A.18.18,0,0,0,.7.88V10L2.45,8.67a.35.35,0,0,1,.21-.07h8.22a.18.18,0,0,0,.18-.18V.88A.18.18,0,0,0,10.88.7Z"/><path class="cls-1" d="M14.39,13.86a.35.35,0,0,1-.21-.07L12,12.11h-7A.88.88,0,0,1,4,11.23v-.68a.35.35,0,0,1,.7,0v.68a.18.18,0,0,0,.18.18h7.17a.35.35,0,0,1,.21.07L14,12.81V5.44a.18.18,0,0,0-.18-.18h-.75a.35.35,0,0,1,0-.7h.75a.88.88,0,0,1,.88.88v8.07a.35.35,0,0,1-.35.35Z"/></svg>