<svg id="图层_1" data-name="图层 1"
    xmlns="http://www.w3.org/2000/svg" viewBox="0 0 31.08 28.1">
    <defs>
        <style></style>
    </defs>
    <path class="cls-1" d="M22.51,27.24a.63.63,0,0,0,.61-.65,12,12,0,0,0-9-11.82,7.31,7.31,0,0,0,4.37-6.7A7,7,0,0,0,11.65.86,7,7,0,0,0,4.82,8.07a7.13,7.13,0,0,0,4.37,6.7,12.07,12.07,0,0,0-9,11.82.63.63,0,0,0,.61.65M22.37,13.62a9.82,9.82,0,0,0,1.71-5.55,9.71,9.71,0,0,0-2.66-6.7.56.56,0,0,0-.89,0,.7.7,0,0,0,0,.94,8.42,8.42,0,0,1,2.25,5.77,8.39,8.39,0,0,1-2,5.48.72.72,0,0,0-.14.65.6.6,0,0,0,.48.43c4.85,1.08,8.53,6.27,8.53,12a.62.62,0,1,0,1.23,0c0-5.91-3.62-11.32-8.53-13Zm0,0"/>
</svg>
