<svg id="图层_1" data-name="图层 1" xmlns="http://www.w3.org/2000/svg" viewBox="0 0 45 45"><defs><style>.cls-1{fill:#666;}</style></defs><title>xiaoshou1liushuibiao</title><path class="cls-1" d="M20.33,44.38H3.28A2.84,2.84,0,0,1,.45,41.54V4.6A2.84,2.84,0,0,1,3.28,1.76h7.77a1.14,1.14,0,0,1,0,2.27H3.28a.57.57,0,0,0-.57.57V41.54a.57.57,0,0,0,.57.57H20.33a1.14,1.14,0,0,1,0,2.27Z"/><path class="cls-1" d="M39.46,18.62a1.13,1.13,0,0,1-1.13-1.14V4.6A.57.57,0,0,0,37.77,4H29.14a1.14,1.14,0,0,1,0-2.27h8.62A2.84,2.84,0,0,1,40.59,4.6V17.48A1.13,1.13,0,0,1,39.46,18.62Z"/><ellipse class="cls-1" cx="26.46" cy="43.24" rx="1.7" ry="1.7"/><path class="cls-1" d="M23.63,8H16.28a4,4,0,0,1,0-8h7.35a4,4,0,0,1,0,8ZM16.28,2.33a1.7,1.7,0,0,0,0,3.41h7.35a1.7,1.7,0,0,0,0-3.41Z"/><path class="cls-1" d="M32.68,16H8.37a1.14,1.14,0,0,1,0-2.27H32.68a1.14,1.14,0,0,1,0,2.27Z"/><path class="cls-1" d="M22.5,31.88H8.37a1.14,1.14,0,0,1,0-2.27H22.5a1.14,1.14,0,0,1,0,2.27Z"/><path class="cls-2" d="M34.66,44.38a1.14,1.14,0,0,1,0-2.27,7.67,7.67,0,0,0,0-15.34H29.57a1.14,1.14,0,0,1,0-2.27h5.09a9.94,9.94,0,0,1,0,19.89Z"/><path class="cls-2" d="M32.27,30.9a1.12,1.12,0,0,1-.8-.33L26.92,26a1.14,1.14,0,0,1,0-1.61l4.81-4.83a1.13,1.13,0,0,1,1.6,0,1.14,1.14,0,0,1,0,1.61l-4,4L33.07,29a1.14,1.14,0,0,1,0,1.61A1.12,1.12,0,0,1,32.27,30.9Z"/></svg>