<svg id="图层_1" data-name="图层 1" xmlns="http://www.w3.org/2000/svg" viewBox="0 0 54 46"><defs><style>.cls-1{fill:#666;}</style></defs><title>campaignBuyCheap</title><polygon class="cls-1" points="8.46 2.67 8.46 7.06 14.22 7.06 14.22 11.43 7.38 11.43 7.38 15.53 13.05 15.53 13.05 16.45 6.54 28.39 9.63 31.86 14.22 24.88 14.22 35.82 18.32 33.23 18.32 23.08 22.32 30.06 26.58 27.72 21.32 18.2 18.73 20.12 18.73 15.53 24.33 15.53 24.33 11.43 18.48 11.43 18.48 7.06 23.74 7.06 23.74 2.67 8.46 2.67"/><polygon class="cls-2" points="29.42 5.5 29.42 26.38 33.6 23.46 33.6 5.5 29.42 5.5"/><polygon class="cls-2" points="43.45 5.5 43.45 19.62 47.46 16.61 47.46 5.5 43.45 5.5"/><polygon class="cls-1" points="36.44 1.5 36.44 26.38 13.39 41.58 22.49 44.5 47.46 25.05 47.46 19.62 40.7 24.88 40.7 1.5 36.44 1.5"/></svg>