<?xml version="1.0" standalone="no"?><!DOCTYPE svg PUBLIC "-//W3C//DTD SVG 1.1//EN" "http://www.w3.org/Graphics/SVG/1.1/DTD/svg11.dtd"><svg t="1574818470599" class="icon" viewBox="0 0 1024 1024" version="1.1" xmlns="http://www.w3.org/2000/svg" p-id="3242" xmlns:xlink="http://www.w3.org/1999/xlink" width="200" height="200"><defs><style type="text/css"></style></defs><path d="M1009.342171 380.342857l-459.044571 637.7472c-64.833829 15.798857-84.904229-18.432-108.075886-50.936686-130.018743-182.506057-259.920457-365.070629-391.9872-546.084571-46.548114-63.780571-44.968229-123.582171-5.002971-188.884114C85.869714 165.800229 122.528914 96.987429 160.885029 29.257143h731.428571c26.916571 84.055771 55.178971 167.467886 117.028571 234.057143v117.028571zM679.994514 91.136c-103.6288 5.149257-208.018286-13.663086-316.386743 12.4928-2.428343 71.358171-1.960229 137.6256 35.722972 200.177371 83.499886 15.36 164.542171 13.312 248.861257 1.521372 17.993143-67.759543 50.936686-128.643657 31.802514-214.191543z m-155.0336 826.016914c26.799543-180.399543 97.8944-351.290514 101.5808-539.0336-79.608686-3.393829-145.934629-12.6976-219.282285 7.226515 32.504686 182.008686 55.266743 360.8576 117.701485 531.807085zM88.853943 379.962514L404.626286 819.785143c9.450057-153.131886-28.554971-291.196343-54.535315-434.497829-81.802971-19.104914-157.871543-12.317257-261.237028-5.3248z m505.621943 478.0032c128.087771-169.866971 232.974629-313.519543 329.376914-474.463085-82.885486-14.862629-153.219657-12.258743-230.282971-2.4576l-99.093943 476.920685z m-259.159772-559.484343L297.340343 107.666286c-42.071771-24.400457-77.824-22.791314-117.994057 2.808685-30.427429 62.083657-88.590629 115.829029-96.080457 206.0288 86.776686-9.157486 163.752229 10.503314 252.050285-18.0224z m394.005943 15.5648c73.493943-6.846171 143.242971 12.346514 224.490057-13.750857-40.374857-74.576457-58.485029-144.939886-104.448-200.850285-35.488914-10.561829-67.964343-17.115429-97.806628 10.620342-8.894171 60.8256-48.508343 117.233371-22.235429 203.9808z" p-id="3243"></path></svg>