<svg id="图层_1" data-name="图层 1" xmlns="http://www.w3.org/2000/svg" viewBox="0 0 45 45"><defs><style>.cls-1{fill:none;stroke:#666;stroke-linecap:round;stroke-linejoin:round;stroke-width:2.39px;}</style></defs><title>jiaojieban</title><circle class="cls-1" cx="21.61" cy="12.67" r="10.44"/><path class="cls-1" d="M1.33,42.77c0-10.69,9.21-19.35,20.58-19.35a21.73,21.73,0,0,1,6.86,1.1"/><path class="cls-2" d="M26.39,36.28a1,1,0,0,0,.85-1.08,8,8,0,0,1-.05-1.3,7.92,7.92,0,0,1,13.73-5.05l-1.39-.3a1,1,0,1,0-.4,1.9l3.8.8.2,0a.94.94,0,0,0,.59-.21,1,1,0,0,0,.37-.73l.16-3.85a1,1,0,1,0-1.94-.08l0,1a9.86,9.86,0,0,0-17,6.36,10.12,10.12,0,0,0,.06,1.62,1,1,0,0,0,1,.85Z"/><path class="cls-2" d="M44.92,33.25a1,1,0,1,0-1.93.23,8.05,8.05,0,0,1,.05,1.3,7.92,7.92,0,0,1-13.73,5.05l1.39.3a1,1,0,0,0,.4-1.9l-3.8-.8a1,1,0,0,0-1.17.91L26,42.19a1,1,0,0,0,.93,1h0a1,1,0,0,0,1-.93l0-1a9.87,9.87,0,0,0,6.76,3.09h.42A9.87,9.87,0,0,0,45,34.87a9,9,0,0,0-.06-1.62Z"/></svg>