<svg id="图层_1" data-name="图层 1"
    xmlns="http://www.w3.org/2000/svg" viewBox="0 0 22 22">
    <defs>
        <style>.cls-1{fill:gray;}</style>
    </defs>
    <title>edit</title>
    <circle class="cls-1" cx="9.3" cy="12.8" r="0.82"/>
    <path class="cls-1" d="M19.89,20.69H2.15A1.36,1.36,0,0,1,.79,19.33V2.46A1.36,1.36,0,0,1,2.15,1.1H13.61a.55.55,0,1,1,0,1.09H2.15a.28.28,0,0,0-.28.27V19.33a.29.29,0,0,0,.28.28H19.89a.28.28,0,0,0,.27-.28V8.22a.54.54,0,0,1,.54-.54.55.55,0,0,1,.55.54V19.33A1.36,1.36,0,0,1,19.89,20.69Z"/>
    <path class="cls-1" d="M10.94,11.44a.55.55,0,0,1-.39-.93L20.62.44a.54.54,0,1,1,.77.77L11.32,11.28A.52.52,0,0,1,10.94,11.44Z"/>
</svg>
