<svg id="图层_1" data-name="图层 1" xmlns="http://www.w3.org/2000/svg" xmlns:xlink="http://www.w3.org/1999/xlink" viewBox="0 0 39.07 39.07"><defs><style>.cls-2{fill:#fff;}</style><linearGradient id="未命名的渐变_6" y1="19.54" x2="39.07" y2="19.54" gradientUnits="userSpaceOnUse"><stop offset="0" stop-color="#fb593d"/><stop offset="1" stop-color="#f38542"/></linearGradient></defs><title>画板 371</title><path class="cls-1" d="M0,19.54A19.54,19.54,0,1,0,19.54,0,19.53,19.53,0,0,0,0,19.54Zm0,0"/><path class="cls-2" d="M32.25,31.68H7.61a.66.66,0,0,1,0-1.32H32.25a.66.66,0,0,1,0,1.32ZM14.66,12.81H12.22a.66.66,0,0,1,0-1.32h2.44a.66.66,0,0,1,0,1.32Zm5.29,0H17.51a.66.66,0,0,1,0-1.32H20a.66.66,0,0,1,0,1.32Zm5.82,6.92V17.29a.66.66,0,1,1,1.32,0v2.44a.66.66,0,0,1-1.32,0Zm0,6.61V23.9a.66.66,0,1,1,1.32,0v2.44a.66.66,0,1,1-1.32,0ZM14.66,18.68H12.22a.66.66,0,0,1,0-1.32h2.44a.66.66,0,0,1,0,1.32Zm5.29,0H17.51a.66.66,0,0,1,0-1.32H20a.66.66,0,0,1,0,1.32Zm-5.29,5.87H12.22a.66.66,0,0,1,0-1.32h2.44a.66.66,0,0,1,0,1.32Zm5.29,0H17.51a.66.66,0,0,1,0-1.32H20a.66.66,0,0,1,0,1.32Zm0,0"/><path class="cls-2" d="M8.49,31V8.64a2,2,0,0,1,2-2H21.67a2,2,0,0,1,2,2V30.58a.66.66,0,1,1-1.32,0V8.64A.65.65,0,0,0,21.67,8H10.46a.65.65,0,0,0-.65.65V31Zm0,0"/><path class="cls-2" d="M23.07,12.81h6.07a2,2,0,0,1,2,2v15.9a.66.66,0,1,1-1.31,0V14.78a.65.65,0,0,0-.65-.65H23.07Zm0,0"/></svg>