<svg id="图层_1" data-name="图层 1" xmlns="http://www.w3.org/2000/svg" xmlns:xlink="http://www.w3.org/1999/xlink" viewBox="0 0 31 31"><defs><style>.cls-1{fill:url(#未命名的渐变_23);}.cls-2{fill:url(#未命名的渐变_23-2);}.cls-3{fill:url(#未命名的渐变_23-3);}.cls-4{fill:url(#未命名的渐变_23-4);}.cls-5{fill:url(#未命名的渐变_23-5);}.cls-6{fill:url(#未命名的渐变_23-6);}</style><linearGradient id="未命名的渐变_23" x1="27.18" y1="21.4" x2="29.5" y2="21.4" gradientUnits="userSpaceOnUse"><stop offset="0" stop-color="#f37942"/><stop offset="1" stop-color="#ff4b3b"/></linearGradient><linearGradient id="未命名的渐变_23-2" x1="0" y1="9.96" x2="31" y2="9.96" xlink:href="#未命名的渐变_23"/><linearGradient id="未命名的渐变_23-3" x1="1.89" y1="22.14" x2="29.11" y2="22.14" xlink:href="#未命名的渐变_23"/><linearGradient id="未命名的渐变_23-4" x1="9.12" y1="3.32" x2="16.08" y2="3.32" xlink:href="#未命名的渐变_23"/><linearGradient id="未命名的渐变_23-5" x1="14.92" y1="3.32" x2="21.88" y2="3.32" xlink:href="#未命名的渐变_23"/><linearGradient id="未命名的渐变_23-6" x1="14.53" y1="22.14" x2="16.08" y2="22.14" xlink:href="#未命名的渐变_23"/></defs><title>icon-campagin-selected</title><ellipse class="cls-1" cx="28.34" cy="21.4" rx="1.16" ry="1.11"/><path class="cls-2" d="M29.07,14.39H1.93A1.89,1.89,0,0,1,0,12.55V7.38A1.89,1.89,0,0,1,1.93,5.54H29.07A1.89,1.89,0,0,1,31,7.38v5.17A1.89,1.89,0,0,1,29.07,14.39ZM1.93,7a.38.38,0,0,0-.39.37v5.17a.38.38,0,0,0,.39.37H29.07a.38.38,0,0,0,.39-.37V7.38A.38.38,0,0,0,29.07,7Z"/><path class="cls-3" d="M27.18,31H3.82a1.89,1.89,0,0,1-1.93-1.85V14a.76.76,0,0,1,.77-.74H28.34a.76.76,0,0,1,.77.74v2.86a.77.77,0,0,1-1.55,0V14.76H3.44V29.15a.38.38,0,0,0,.39.37H27.18a.38.38,0,0,0,.39-.37v-3a.77.77,0,0,1,1.55,0v3A1.89,1.89,0,0,1,27.18,31Z"/><path class="cls-4" d="M12.6,6.64A3.41,3.41,0,0,1,9.12,3.32,3.41,3.41,0,0,1,12.6,0a3.41,3.41,0,0,1,3.48,3.32A3.41,3.41,0,0,1,12.6,6.64Zm0-5.17a1.89,1.89,0,0,0-1.93,1.85,1.93,1.93,0,0,0,3.87,0A1.89,1.89,0,0,0,12.6,1.48Z"/><path class="cls-5" d="M18.4,6.64a3.41,3.41,0,0,1-3.48-3.32,3.48,3.48,0,0,1,7,0A3.41,3.41,0,0,1,18.4,6.64Zm0-5.17a1.89,1.89,0,0,0-1.93,1.85,1.93,1.93,0,0,0,3.87,0A1.89,1.89,0,0,0,18.4,1.48Z"/><path class="cls-6" d="M15.31,31a.76.76,0,0,1-.77-.74V14a.77.77,0,0,1,1.55,0V30.26A.76.76,0,0,1,15.31,31Z"/></svg>