<svg id="图层_1" data-name="图层 1"
    xmlns="http://www.w3.org/2000/svg" viewBox="0 0 54 46">
    <defs>
        <style>.cls-1{fill:#666;}</style>
    </defs>
    <title>campaignMessage</title>
    <path class="cls-1" d="M27,45.9h0a1.16,1.16,0,0,1-.81-.35L20.7,39.84H7.54a5.24,5.24,0,0,1-5.38-5.06V5.16A5.24,5.24,0,0,1,7.54.1H46.46a5.24,5.24,0,0,1,5.38,5.06V34.78a5.24,5.24,0,0,1-5.38,5.06H33.58L27.8,45.57A1.14,1.14,0,0,1,27,45.9ZM7.54,2.37A3,3,0,0,0,4.43,5.16V34.78a3,3,0,0,0,3.11,2.79H21.19a1.14,1.14,0,0,1,.82.35l5,5.22,5.29-5.25a1.14,1.14,0,0,1,.8-.32H46.46a3,3,0,0,0,3.11-2.79V5.16a3,3,0,0,0-3.11-2.79Z"/>
    <path class="cls-2" d="M41.2,15.82H13.37a1.14,1.14,0,1,1,0-2.28H41.2a1.14,1.14,0,0,1,0,2.28Z"/>
    <path class="cls-2" d="M29.84,26.41H13.37a1.14,1.14,0,1,1,0-2.27H29.84a1.14,1.14,0,1,1,0,2.27Z"/>
</svg>
