<svg id="图层_1" data-name="图层 1" xmlns="http://www.w3.org/2000/svg" viewBox="0 0 54 46"><defs><style>.cls-1{fill:#666;}</style></defs><title>campaignActive</title><path class="cls-1" d="M21.21,40.37a2.65,2.65,0,0,1-1.9-.79L4.54,24.69a2.67,2.67,0,0,1,0-3.78l19-18.86a3.84,3.84,0,0,1,3-1.11l12.35.81A4.39,4.39,0,0,1,43,5.91l.6,12.16a3.85,3.85,0,0,1-1.17,3L23.06,39.63A2.67,2.67,0,0,1,21.21,40.37Zm5.05-37a1.42,1.42,0,0,0-1,.43h0l-19,18.86a.28.28,0,0,0,0,.4L21,37.9a.28.28,0,0,0,.4,0L40.73,19.32a1.51,1.51,0,0,0,.45-1.13L40.57,6a2,2,0,0,0-1.86-1.89L26.36,3.32ZM24.38,2.9h0Z"/><path class="cls-1" d="M37.79,45.07a3.46,3.46,0,0,1-1.22-.22l-9.49-3.41a1.2,1.2,0,0,1,.81-2.25l9.5,3.41a1.12,1.12,0,0,0,.88,0,1.14,1.14,0,0,0,.58-.64l8.9-25a1.49,1.49,0,0,0-.07-1.19L44.42,9.34a1.2,1.2,0,0,1,2.14-1.08l3.25,6.44a3.93,3.93,0,0,1,.2,3.08l-8.9,24.95a3.52,3.52,0,0,1-3.32,2.34Z"/><path class="cls-2" d="M33.24,15.62a4.42,4.42,0,1,1,4.42-4.42A4.43,4.43,0,0,1,33.24,15.62Zm0-6.68A2.26,2.26,0,1,0,35.5,11.2,2.27,2.27,0,0,0,33.24,8.94Z"/></svg>