<svg id="图层_1" data-name="图层 1"
    xmlns="http://www.w3.org/2000/svg"
    xmlns:xlink="http://www.w3.org/1999/xlink" viewBox="0 0 44.23 37.94">
    <defs>
        <style>.cls-1,.cls-4,.cls-5{fill:none;}.cls-2{clip-path:url(#clip-path);}.cls-3{fill:#fff;opacity:0.1;}.cls-4{stroke-miterlimit:10;stroke-width:2.1px;}.cls-4,.cls-5{stroke-linecap:round;}.cls-5{stroke:#666;stroke-linejoin:round;stroke-width:2.32px;}</style>
        <clipPath id="clip-path">
            <rect class="cls-1" x="-221.47" y="139.54" width="247.63" height="82"/>
        </clipPath>
    </defs>
    <title>campaignTogether</title>
    <g class="cls-2">
        <polygon class="cls-3" points="-129.16 219.72 -36.49 89.46 24.06 177.62 47.54 173.67 -34.69 31.18 -165 223.67 -129.16 219.72"/>
    </g>
    <line class="cls-4" x1="15.32" y1="23.59" x2="24.69" y2="32.96"/>
    <line class="cls-4" x1="19.32" y1="19.59" x2="28.69" y2="28.96"/>
    <line class="cls-4" x1="23.32" y1="15.59" x2="32.69" y2="24.96"/>
    <path class="cls-5" d="M32.77,25.88,42.62,16a1.53,1.53,0,0,0,0-2.17L30.88,2.12a1.53,1.53,0,0,0-2.17,0L24,6.8"/>
    <rect class="cls-5" x="4.32" y="7.49" width="29.29" height="22.96" rx="1.61" ry="1.61" transform="translate(18.97 -7.86) rotate(45)"/>
</svg>
