<svg id="图层_1" data-name="图层 1" xmlns="http://www.w3.org/2000/svg" viewBox="0 0 54 46"><defs><style>.cls-1{fill:#666;}</style></defs><title>campaignGroup</title><path class="cls-1" d="M21.84,24.81A11.64,11.64,0,1,1,33.47,13.17,11.65,11.65,0,0,1,21.84,24.81Zm0-20.89a9.25,9.25,0,1,0,9.24,9.25A9.26,9.26,0,0,0,21.84,3.92Z"/><path class="cls-1" d="M42.72,44.47a1.19,1.19,0,0,1-1.19-1.2c0-10-8.7-18.15-19.39-18.15S2.76,33.26,2.76,43.27a1.2,1.2,0,1,1-2.39,0c0-11.33,9.77-20.54,21.77-20.54s21.78,9.21,21.78,20.54A1.2,1.2,0,0,1,42.72,44.47Z"/><path class="cls-2" d="M37.19,21.62a1.08,1.08,0,1,1,0-2.16,6.6,6.6,0,0,0,0-13.2,1.08,1.08,0,1,1,0-2.16,8.76,8.76,0,1,1,0,17.52Z"/><path class="cls-2" d="M52.55,36.08A1.09,1.09,0,0,1,51.47,35c0-7.25-6.3-13.15-14-13.15a1.08,1.08,0,1,1,0-2.16c8.94,0,16.21,6.87,16.21,15.31A1.08,1.08,0,0,1,52.55,36.08Z"/></svg>