<svg id="图层_1" data-name="图层 1"
    xmlns="http://www.w3.org/2000/svg" viewBox="0 0 54 46">
    <defs>
        <style>.cls-2{fill:#666;}</style>
    </defs>
    <title>campaignCoupon</title>
    <path class="cls-1" d="M29.14,29.51H13.75a1.14,1.14,0,0,1,0-2.28H29.14a1.14,1.14,0,0,1,0,2.28Z"/>
    <path class="cls-1" d="M29.14,19.76H13.75a1.14,1.14,0,1,1,0-2.27H29.14a1.14,1.14,0,0,1,0,2.27Z"/>
    <path class="cls-2" d="M47.83,40.55H6.17a2.87,2.87,0,0,1-2.86-2.86V27.54a1.26,1.26,0,0,1,1.26-1.26,3,3,0,0,0,0-6A1.25,1.25,0,0,1,3.31,19V8.31A2.87,2.87,0,0,1,6.17,5.45H47.83a2.87,2.87,0,0,1,2.86,2.86V19a1.25,1.25,0,0,1-1.26,1.26,3,3,0,0,0,0,6,1.26,1.26,0,0,1,1.26,1.26V37.69A2.87,2.87,0,0,1,47.83,40.55Zm-42-11.9v9a.35.35,0,0,0,.35.34H47.83a.35.35,0,0,0,.35-.34v-9a5.53,5.53,0,0,1,0-10.77V8.31A.35.35,0,0,0,47.83,8H6.17a.35.35,0,0,0-.35.34v9.57a5.53,5.53,0,0,1,0,10.77Z"/>
    <path class="cls-2" d="M36,39.48a1.25,1.25,0,0,1-1.25-1.26V12.32a1.26,1.26,0,0,1,2.51,0v25.9A1.25,1.25,0,0,1,36,39.48Z"/>
</svg>
