<svg id="图层_1" data-name="图层 1" xmlns="http://www.w3.org/2000/svg" viewBox="0 0 26 30"><defs><style>.cls-1,.cls-2{fill:#4cbbb4;}.cls-1{stroke:#fff;stroke-miterlimit:10;stroke-width:0.1px;}</style></defs><title>财务报表-绿</title><path class="cls-1" d="M19.56,22.39H6.33a1,1,0,0,0,0,1.93H19.56a1,1,0,0,0,0-1.93Zm0-5H6.33a1,1,0,0,0,0,1.93H19.56a1,1,0,0,0,0-1.93Zm.54-11.8H16a.94.94,0,0,0,0,1.87h1.76l-.29.3-.19.2-3,3-.08.08-.12.12L14,11.11,13.87,11,11.28,8.36a1.38,1.38,0,0,0-1-.42,1.4,1.4,0,0,0-1,.42L5.05,12.72a1,1,0,0,0,0,1.32.85.85,0,0,0,.65.27A.87.87,0,0,0,6.34,14l3.74-3.85.08-.08.13-.12.2.2,2.59,2.67a1.38,1.38,0,0,0,1,.42,1.42,1.42,0,0,0,1-.42L18.7,9.13l.19-.2.3-.31v2.06a.91.91,0,1,0,1.82,0V6.56a.93.93,0,0,0-.91-.94Zm0,0M2.07.68H23.83a1.93,1.93,0,0,1,1.86,2V27.4a1.93,1.93,0,0,1-1.86,2H19.61a.84.84,0,0,1,0-1.68h4.22a.3.3,0,0,0,.28-.3V2.66a.3.3,0,0,0-.28-.3H2.07a.3.3,0,0,0-.28.3V27.4a.3.3,0,0,0,.28.3h10a.84.84,0,0,1,0,1.68h-10a1.92,1.92,0,0,1-1.86-2V2.66A1.92,1.92,0,0,1,2.07.68Z"/><path class="cls-2" d="M15.63,29.38a.81.81,0,0,1-.92-.69h0a.84.84,0,0,1,.63-1h0a.8.8,0,0,1,.92.68h0a.82.82,0,0,1-.62,1Z"/></svg>