<svg id="图层_1" data-name="图层 1" xmlns="http://www.w3.org/2000/svg" viewBox="0 0 26 26"><defs></defs><title>画板 412 副本 5</title><path class="cls-1" d="M13,26A13,13,0,1,1,26,13,13,13,0,0,1,13,26ZM13,1.24A11.76,11.76,0,1,0,24.76,13,11.78,11.78,0,0,0,13,1.24Z"/><path class="cls-1" d="M13,17.64A4.64,4.64,0,1,1,17.64,13,4.65,4.65,0,0,1,13,17.64Zm0-8A3.4,3.4,0,1,0,16.4,13,3.41,3.41,0,0,0,13,9.6Z"/><path class="cls-1" d="M24.45,17.64H13a.62.62,0,0,1,0-1.24H24.45a.62.62,0,0,1,0,1.24Z"/><path class="cls-1" d="M13,9.6H1.55a.62.62,0,1,1,0-1.24H13A.62.62,0,1,1,13,9.6Z"/><path class="cls-1" d="M17,13.62A.62.62,0,0,1,16.4,13V1.55a.62.62,0,0,1,1.24,0V13A.62.62,0,0,1,17,13.62Z"/><path class="cls-1" d="M9,25.07a.62.62,0,0,1-.62-.62V13A.62.62,0,1,1,9.6,13V24.45A.62.62,0,0,1,9,25.07Z"/><path class="cls-1" d="M15.85,16.46a.62.62,0,0,1-.44-1.06l8.1-8.1a.62.62,0,0,1,.88.88l-8.1,8.1A.62.62,0,0,1,15.85,16.46Z"/><path class="cls-1" d="M2.06,18.87a.62.62,0,0,1-.44-1.06l8.1-8.1a.62.62,0,0,1,.88.88l-8.1,8.1A.62.62,0,0,1,2.06,18.87Z"/><path class="cls-1" d="M15.85,10.77a.62.62,0,0,1-.44-.18l-8.1-8.1a.62.62,0,0,1,.88-.88l8.1,8.1a.62.62,0,0,1-.44,1.06Z"/><path class="cls-1" d="M18.25,24.56a.62.62,0,0,1-.44-.18l-8.1-8.1a.62.62,0,0,1,.88-.88l8.1,8.1a.62.62,0,0,1-.44,1.06Z"/></svg>
