<svg id="图层_1" data-name="图层 1" xmlns="http://www.w3.org/2000/svg" viewBox="0 0 54 46"><defs><style>.cls-1{fill:#666;}</style></defs><title>campaignChange</title><path class="cls-1" d="M10.69,24.3a1.16,1.16,0,0,1-1.17-1.16A17.59,17.59,0,0,1,27.09,5.57a17.38,17.38,0,0,1,10.6,3.56A1.16,1.16,0,1,1,36.29,11a15.08,15.08,0,0,0-9.2-3.08A15.26,15.26,0,0,0,11.85,23.14,1.16,1.16,0,0,1,10.69,24.3Z"/><path class="cls-1" d="M27.09,40.71a17.52,17.52,0,0,1-9.91-3.06,1.16,1.16,0,0,1-.3-1.61,1.17,1.17,0,0,1,1.62-.31,15.23,15.23,0,0,0,20.36-2.89,1.16,1.16,0,1,1,1.79,1.48A17.52,17.52,0,0,1,27.09,40.71Z"/><path class="cls-1" d="M17.84,42.11a1.16,1.16,0,0,1-1.12-.85l-1.47-5.39a1.18,1.18,0,0,1,.15-.93,1.14,1.14,0,0,1,.79-.52l6.1-1a1.16,1.16,0,1,1,.37,2.29l-4.82.78L19,40.64a1.16,1.16,0,0,1-.81,1.43A1.15,1.15,0,0,1,17.84,42.11Z"/><path class="cls-1" d="M31.86,13.24a1.17,1.17,0,0,1-.23-2.31l4.68-1-.48-4.81a1.17,1.17,0,0,1,2.32-.23l.58,5.85A1.16,1.16,0,0,1,37.81,12L32.1,13.21Z"/><circle class="cls-1" cx="41.49" cy="16.04" r="1.1"/><circle class="cls-1" cx="43.37" cy="21.2" r="1.1"/><circle class="cls-1" cx="42.59" cy="27.41" r="1.1"/><path class="cls-2" d="M32.87,22.25h-11a1.05,1.05,0,0,1,0-2.1h11a1.05,1.05,0,1,1,0,2.1Z"/><path class="cls-2" d="M32.87,27h-11a1,1,0,1,1,0-2.1h11a1,1,0,0,1,0,2.1Z"/><path class="cls-2" d="M27.36,31.37a1,1,0,0,1-1.05-1.05V21.2a1.05,1.05,0,1,1,2.1,0v9.12A1,1,0,0,1,27.36,31.37Z"/><path class="cls-2" d="M26,22.25a1,1,0,0,1-1-.62l-1.66-3.7a1,1,0,1,1,1.91-.86l1.66,3.7a1,1,0,0,1-.52,1.39A1.11,1.11,0,0,1,26,22.25Z"/><path class="cls-2" d="M29,22.25a1.11,1.11,0,0,1-.43-.09,1.06,1.06,0,0,1-.52-1.39l1.66-3.7a1.05,1.05,0,1,1,1.92.86L30,21.63A1,1,0,0,1,29,22.25Z"/></svg>