<svg id="图层_1" data-name="图层 1" xmlns="http://www.w3.org/2000/svg" viewBox="0 0 13.66 15.54"><defs><style></style></defs><title>bind</title><path class="cls-1" d="M6.81,14.77a.69.69,0,0,1-.44-.16h0l-.84-.81A1,1,0,0,1,5.24,13l.3-1.87a.7.7,0,0,1,.69-.59H7.36a.69.69,0,0,1,.68.6L8.28,13a1.12,1.12,0,0,1-.27.82l-.84.89h0a.65.65,0,0,1-.34.09Zm0-.63h0l0,0,.72-.77a.46.46,0,0,0,.1-.31l-.23-1.86s0,0-.06,0H6.23a.1.1,0,0,0-.07.05l-.3,1.87a.43.43,0,0,0,.09.27Zm0-3.93a5.11,5.11,0,1,1,5.11-5.11,5.11,5.11,0,0,1-5.11,5.11Zm0-9.59a4.48,4.48,0,1,0,4.48,4.48A4.49,4.49,0,0,0,6.76.62Zm0,0"/><path class="cls-1" d="M.41,15.51a.31.31,0,0,1-.3-.26A7,7,0,0,1,0,14,6.82,6.82,0,0,1,3,8.42a.31.31,0,0,1,.36.52A6.18,6.18,0,0,0,.63,14a6.49,6.49,0,0,0,.09,1.1.31.31,0,0,1-.25.36Zm12.91,0h0A.31.31,0,0,1,13,15.2q0-.27,0-.54a5.86,5.86,0,0,0-2.32-4.72.31.31,0,1,1,.37-.51,6.47,6.47,0,0,1,2.57,5.22c0,.2,0,.4,0,.59a.31.31,0,0,1-.31.29Zm0,0"/></svg>