<svg id="图层_1" data-name="图层 1" xmlns="http://www.w3.org/2000/svg" viewBox="0 0 31 29.98"><defs><style></style></defs><title>画板 367</title><path class="cls-1" d="M24.65,30H7a2.63,2.63,0,0,1-2.62-2.64V7.65A2.64,2.64,0,0,1,5.8,5.32a.75.75,0,0,1,.71,1.32,1.15,1.15,0,0,0-.6,1V27.33A1.13,1.13,0,0,0,7,28.48H24.65a1.13,1.13,0,0,0,1.12-1.14V16.56a.75.75,0,1,1,1.5,0V27.33A2.63,2.63,0,0,1,24.65,30Z"/><path class="cls-1" d="M26.52,12.49a.75.75,0,0,1-.75-.75V7.65a1.15,1.15,0,0,0-.42-.89.75.75,0,1,1,.95-1.16,2.64,2.64,0,0,1,1,2.06v4.09A.75.75,0,0,1,26.52,12.49Z"/><path class="cls-1" d="M22.37,6.07a.75.75,0,0,1-.75-.75V1.87a.38.38,0,0,0-.37-.37h-12a.38.38,0,0,0-.37.37V5.32a.75.75,0,1,1-1.49,0V1.87A1.87,1.87,0,0,1,9.23,0h12a1.87,1.87,0,0,1,1.87,1.87V5.32A.75.75,0,0,1,22.37,6.07Z"/><path class="cls-1" d="M30.25,6.72H.75a.75.75,0,0,1,0-1.49H30.25a.75.75,0,0,1,0,1.49Z"/><path class="cls-1" d="M12,25.4a.75.75,0,0,1-.75-.75V10.08a.75.75,0,0,1,1.49,0V24.65A.75.75,0,0,1,12,25.4Z"/><path class="cls-1" d="M19,25.4a.75.75,0,0,1-.75-.75V10.08a.75.75,0,0,1,1.49,0V24.65A.75.75,0,0,1,19,25.4Z"/><circle class="cls-1" cx="26.52" cy="14.15" r="0.86"/></svg>