<svg id="图层_1" data-name="图层 1" xmlns="http://www.w3.org/2000/svg" viewBox="0 0 45.27 45.31">
	<defs>
		<style>
			.cls-1{}.cls-2{fill:#666;}
		</style>
	</defs>
	<title>
		churukumingxibiao
	</title>
	<path class="cls-1" d="M19.8,17.33a1.33,1.33,0,0,0-1.88,0l-5.49,5.49a1.33,1.33,0,0,0-.28,1.45,1.31,1.31,0,0,0,1.28,1.1H31.84a1.33,1.33,0,0,0,0-2.66H16.31l3.5-3.5a1.33,1.33,0,0,0,0-1.88m5.83,18.78a1.33,1.33,0,0,0,1.88,0L33,30.61a1.33,1.33,0,0,0,.28-1.45A1.31,1.31,0,0,0,32,28.06H13.59a1.33,1.33,0,0,0,0,2.66H29.13l-3.5,3.5a1.33,1.33,0,0,0,0,1.88" />
	<path class="cls-2" d="M44.85,20.23,23.67.35a1.32,1.32,0,0,0-1-.34,1.33,1.33,0,0,0-1,.34L.42,20.23a1.33,1.33,0,1,0,1.82,1.94l.6-.56V39.08A6.25,6.25,0,0,0,9.1,45.31H36.17a6.25,6.25,0,0,0,6.26-6.23V34.61a1.33,1.33,0,0,0-2.66,0v4.47a3.59,3.59,0,0,1-3.6,3.57H9.1A3.59,3.59,0,0,1,5.5,39.08v-20L22.63,3,39.77,19.12v7.51a1.33,1.33,0,0,0,2.66,0v-5l.6.56a1.33,1.33,0,1,0,1.82-1.94" />
</svg>
