<svg id="图层_1" data-name="图层 1" xmlns="http://www.w3.org/2000/svg" viewBox="0 0 17.57 13.85"><defs><style></style></defs><title>grant</title><path class="cls-1" d="M17.57,9.17a.33.33,0,0,0-.33-.33,1.75,1.75,0,1,1,0-3.49A.33.33,0,0,0,17.57,5V1.25A1.25,1.25,0,0,0,17.2.37,1.24,1.24,0,0,0,16.32,0H1.25A1.25,1.25,0,0,0,.37.37l0,0A1.24,1.24,0,0,0,0,1.25V5a.33.33,0,0,0,.33.33A1.74,1.74,0,0,1,2.08,7.09a1.74,1.74,0,0,1-.51,1.24,1.74,1.74,0,0,1-1.24.51A.33.33,0,0,0,0,9.17V12.6a1.24,1.24,0,0,0,.37.88h0a1.24,1.24,0,0,0,.88.37H2.51a.33.33,0,1,0,0-.65H1.25a.6.6,0,0,1-.6-.6V9.48l.11,0A2.4,2.4,0,0,0,2,8.8H2A2.39,2.39,0,0,0,2,5.4H2A2.4,2.4,0,0,0,.77,4.73l-.11,0V1.25A.6.6,0,0,1,.81.85l0,0A.6.6,0,0,1,1.25.65H16.32a.61.61,0,0,1,.6.6V4.71l-.11,0a2.4,2.4,0,0,0-1.25.65h0a2.39,2.39,0,0,0,0,3.39h0a2.4,2.4,0,0,0,1.25.65l.11,0V12.6a.6.6,0,0,1-.6.6H4.93a.33.33,0,1,0,0,.65H16.32a1.26,1.26,0,0,0,1.25-1.25Zm0,0"/><path class="cls-1" d="M11.68,8.28H9.09V6.62h2.58a.35.35,0,1,0,0-.7H9L11.9,3.45a.35.35,0,0,0,0-.49.35.35,0,0,0-.49,0L8.74,5.25,6,2.92a.35.35,0,0,0-.49,0,.35.35,0,0,0,0,.49L8.47,5.93H5.81a.35.35,0,1,0,0,.7H8.39V8.28H5.81a.35.35,0,1,0,0,.7H8.39v1.68a.35.35,0,0,0,.7,0V9h2.58a.35.35,0,1,0,0-.7Zm0,0"/></svg>