<svg id="图层_1" data-name="图层 1" xmlns="http://www.w3.org/2000/svg" xmlns:xlink="http://www.w3.org/1999/xlink" viewBox="0 0 26 26"><defs><style>.cls-1{fill:url(#未命名的渐变_2);}.cls-2{fill:url(#未命名的渐变_2-2);}.cls-3{fill:url(#未命名的渐变_2-3);}.cls-4{fill:url(#未命名的渐变_2-4);}.cls-5{fill:url(#未命名的渐变_2-5);}.cls-6{fill:url(#未命名的渐变_2-6);}.cls-7{fill:url(#未命名的渐变_2-7);}.cls-8{fill:url(#未命名的渐变_2-8);}.cls-9{fill:url(#未命名的渐变_2-9);}.cls-10{fill:url(#未命名的渐变_2-10);}</style><linearGradient id="未命名的渐变_2" y1="13" x2="26" y2="13" gradientUnits="userSpaceOnUse"><stop offset="0" stop-color="#f37942"/><stop offset="1" stop-color="#ff4b3b"/></linearGradient><linearGradient id="未命名的渐变_2-2" x1="8.36" x2="17.64" xlink:href="#未命名的渐变_2"/><linearGradient id="未命名的渐变_2-3" x1="12.38" y1="17.02" x2="25.07" y2="17.02" xlink:href="#未命名的渐变_2"/><linearGradient id="未命名的渐变_2-4" x1="0.93" y1="8.98" x2="13.62" y2="8.98" xlink:href="#未命名的渐变_2"/><linearGradient id="未命名的渐变_2-5" x1="16.4" y1="7.27" x2="17.64" y2="7.27" xlink:href="#未命名的渐变_2"/><linearGradient id="未命名的渐变_2-6" x1="8.36" y1="18.73" x2="9.6" y2="18.73" xlink:href="#未命名的渐变_2"/><linearGradient id="未命名的渐变_2-7" x1="15.23" y1="11.8" x2="24.56" y2="11.8" xlink:href="#未命名的渐变_2"/><linearGradient id="未命名的渐变_2-8" x1="1.44" y1="14.2" x2="10.77" y2="14.2" xlink:href="#未命名的渐变_2"/><linearGradient id="未命名的渐变_2-9" x1="7.13" y1="6.11" x2="16.46" y2="6.11" xlink:href="#未命名的渐变_2"/><linearGradient id="未命名的渐变_2-10" x1="9.54" y1="19.89" x2="18.87" y2="19.89" xlink:href="#未命名的渐变_2"/></defs><title>画板 412</title><path class="cls-1" d="M13,26A13,13,0,1,1,26,13,13,13,0,0,1,13,26ZM13,1.24A11.76,11.76,0,1,0,24.76,13,11.78,11.78,0,0,0,13,1.24Z"/><path class="cls-2" d="M13,17.64A4.64,4.64,0,1,1,17.64,13,4.65,4.65,0,0,1,13,17.64Zm0-8A3.4,3.4,0,1,0,16.4,13,3.41,3.41,0,0,0,13,9.6Z"/><path class="cls-3" d="M24.45,17.64H13a.62.62,0,0,1,0-1.24H24.45a.62.62,0,0,1,0,1.24Z"/><path class="cls-4" d="M13,9.6H1.55a.62.62,0,1,1,0-1.24H13A.62.62,0,1,1,13,9.6Z"/><path class="cls-5" d="M17,13.62A.62.62,0,0,1,16.4,13V1.55a.62.62,0,0,1,1.24,0V13A.62.62,0,0,1,17,13.62Z"/><path class="cls-6" d="M9,25.07a.62.62,0,0,1-.62-.62V13A.62.62,0,1,1,9.6,13V24.45A.62.62,0,0,1,9,25.07Z"/><path class="cls-7" d="M15.85,16.46a.62.62,0,0,1-.44-1.06l8.1-8.1a.62.62,0,0,1,.88.88l-8.1,8.1A.62.62,0,0,1,15.85,16.46Z"/><path class="cls-8" d="M2.06,18.87a.62.62,0,0,1-.44-1.06l8.1-8.1a.62.62,0,0,1,.88.88l-8.1,8.1A.62.62,0,0,1,2.06,18.87Z"/><path class="cls-9" d="M15.85,10.77a.62.62,0,0,1-.44-.18l-8.1-8.1a.62.62,0,0,1,.88-.88l8.1,8.1a.62.62,0,0,1-.44,1.06Z"/><path class="cls-10" d="M18.25,24.56a.62.62,0,0,1-.44-.18l-8.1-8.1a.62.62,0,0,1,.88-.88l8.1,8.1a.62.62,0,0,1-.44,1.06Z"/></svg>