<svg id="图层_1" data-name="图层 1" xmlns="http://www.w3.org/2000/svg" viewBox="0 0 31 26"><defs><style></style></defs><title>画板 21</title><path class="cls-1" d="M27,25.75H5.15a1.56,1.56,0,0,1-1.55-1.55V19.53a.62.62,0,0,1,1.24,0v4.66a.32.32,0,0,0,.31.31H27a.32.32,0,0,0,.31-.31V21.86a.62.62,0,0,1,1.24,0v2.33A1.56,1.56,0,0,1,27,25.75Z"/><path class="cls-1" d="M27.9,14.66a.62.62,0,0,1-.62-.62V1.81A.32.32,0,0,0,27,1.49H5.15a.32.32,0,0,0-.31.31V6.7a.62.62,0,1,1-1.24,0V1.81A1.56,1.56,0,0,1,5.15.25H27a1.56,1.56,0,0,1,1.55,1.55V14A.62.62,0,0,1,27.9,14.66Z"/><circle class="cls-1" cx="28.25" cy="17.66" r="0.93"/><path class="cls-1" d="M16,14a3.78,3.78,0,1,1,3.78-3.78A3.78,3.78,0,0,1,16,14Zm0-6.31a2.53,2.53,0,1,0,2.53,2.53A2.54,2.54,0,0,0,16,7.64Z"/><path class="cls-1" d="M22.34,19.9a.62.62,0,0,1-.62-.62A5.43,5.43,0,0,0,16.12,14a5.43,5.43,0,0,0-5.6,5.23.62.62,0,0,1-1.24,0,6.67,6.67,0,0,1,6.84-6.47A6.67,6.67,0,0,1,23,19.27.62.62,0,0,1,22.34,19.9Z"/><path class="cls-1" d="M6.17,10.2H2.44A.62.62,0,0,1,2.44,9H6.17a.62.62,0,0,1,0,1.24Z"/><path class="cls-1" d="M6.17,13.78H2.44a.62.62,0,1,1,0-1.24H6.17a.62.62,0,1,1,0,1.24Z"/><path class="cls-1" d="M6.17,17.35H2.44a.62.62,0,1,1,0-1.24H6.17a.62.62,0,1,1,0,1.24Z"/></svg>