<svg id="图层_1" data-name="图层 1" xmlns="http://www.w3.org/2000/svg" viewBox="0 0 54 46"><defs><style>.cls-1{fill:#666;}</style></defs><title>campaignCouponTime</title><path class="cls-1" d="M47,41H7a3.58,3.58,0,0,1-3.58-3.57V8.59A3.58,3.58,0,0,1,7,5H47a3.58,3.58,0,0,1,3.58,3.57V37.41A3.58,3.58,0,0,1,47,41ZM7,7.29A1.31,1.31,0,0,0,5.7,8.59V37.41A1.31,1.31,0,0,0,7,38.71H47a1.31,1.31,0,0,0,1.31-1.3V8.59A1.31,1.31,0,0,0,47,7.29Z"/><path class="cls-2" d="M44,32H28a1.14,1.14,0,0,1,0-2.27H44A1.14,1.14,0,0,1,44,32Z"/></svg>