<svg id="图层_1" data-name="图层 1" xmlns="http://www.w3.org/2000/svg" xmlns:xlink="http://www.w3.org/1999/xlink" viewBox="0 0 28.65 28.65"><defs><style></style><linearGradient id="未命名的渐变_28" y1="14.33" x2="28.65" y2="14.33" gradientUnits="userSpaceOnUse"><stop offset="0" stop-color="#f38542"/><stop offset="1" stop-color="#fb593d"/></linearGradient><linearGradient id="未命名的渐变_28-2" x1="9.68" y1="10.97" x2="19.84" y2="10.97" xlink:href="#未命名的渐变_28"/><linearGradient id="未命名的渐变_28-3" x1="7.21" y1="18.93" x2="22.31" y2="18.93" xlink:href="#未命名的渐变_28"/></defs><title>画板 368</title><path class="cls-1" d="M28.22,10.85a.87.87,0,0,0-1.68.42,12.61,12.61,0,1,1-5.61-7.67.87.87,0,1,0,.92-1.47h0a14.32,14.32,0,1,0,6.39,8.73Zm0,0"/><path class="cls-2" d="M14.76,15.82A5,5,0,0,1,9.68,11a5,5,0,0,1,5.08-4.85A5,5,0,0,1,19.84,11a5,5,0,0,1-5.08,4.85Zm0-8.57A3.82,3.82,0,0,0,10.86,11a3.82,3.82,0,0,0,3.9,3.72A3.82,3.82,0,0,0,18.66,11a3.82,3.82,0,0,0-3.9-3.72Zm0,0"/><path class="cls-3" d="M21.72,22.82a.58.58,0,0,1-.59-.56,6.24,6.24,0,0,0-6.37-6.08,6.24,6.24,0,0,0-6.37,6.08.59.59,0,0,1-1.18,0,7,7,0,0,1,2.21-5.1,7.81,7.81,0,0,1,10.68,0,7,7,0,0,1,2.21,5.1.58.58,0,0,1-.59.56Zm0,0"/></svg>