<svg id="图层_1" data-name="图层 1" xmlns="http://www.w3.org/2000/svg" xmlns:xlink="http://www.w3.org/1999/xlink" viewBox="0 0 28.65 28.65"><defs>:<linearGradient id="未命名的渐变_28" y1="14.33" x2="28.65" y2="14.33" gradientUnits="userSpaceOnUse"><stop offset="0" stop-color="#f38542"/><stop offset="1" stop-color="#fb593d"/></linearGradient><linearGradient id="未命名的渐变_28-2" x1="11.84" y1="7.04" x2="17.14" y2="7.04" xlink:href="#未命名的渐变_28"/><linearGradient id="未命名的渐变_28-3" x1="9.98" y1="11.4" x2="19.01" y2="11.4" xlink:href="#未命名的渐变_28"/><linearGradient id="未命名的渐变_28-4" x1="9.98" y1="14.34" x2="19.01" y2="14.34" xlink:href="#未命名的渐变_28"/><linearGradient id="未命名的渐变_28-5" x1="10" y1="17.52" x2="19.03" y2="17.52" xlink:href="#未命名的渐变_28"/><linearGradient id="未命名的渐变_28-6" x1="6.51" y1="14.86" x2="22.45" y2="14.86" xlink:href="#未命名的渐变_28"/></defs><title>画板 360</title><path class="cls-1" d="M28.22,10.85a.87.87,0,0,0-1.68.42,12.61,12.61,0,1,1-5.61-7.67.87.87,0,1,0,.92-1.47h0a14.32,14.32,0,1,0,6.39,8.73Zm0,0"/><path class="cls-2" d="M12.66,6.12h3.67a.88.88,0,0,1,.82.92.88.88,0,0,1-.79.92h-3.7A.88.88,0,0,1,11.84,7a.9.9,0,0,1,.82-.92Z"/><path class="cls-3" d="M18.47,10.87a.54.54,0,1,1,0,1.07h-8a.54.54,0,0,1,0-1.07Z"/><path class="cls-4" d="M18.47,14.87h-8a.54.54,0,0,1,0-1.07h7.93a.58.58,0,0,1,.56.54.51.51,0,0,1-.54.54Z"/><path class="cls-5" d="M19,17.52a.56.56,0,0,1-.54.54h-8a.54.54,0,0,1,0-1.07h7.93a.58.58,0,0,1,.56.54Z"/><path class="cls-6" d="M22.45,20.84a2,2,0,0,1-2.24,2.24H8.75a2.08,2.08,0,0,1-2.24-2.24V8.78A1.94,1.94,0,0,1,8.63,6.63H10c.28,0,.41.18.41.48s-.1.59-.41.59H8.63A1,1,0,0,0,7.55,8.78V21A1.25,1.25,0,0,0,8.88,22h11.4A1,1,0,0,0,21.35,21V8.78A1,1,0,0,0,20.28,7.7H19.21a.68.68,0,0,1-.64-.59c0-.28.33-.48.64-.48h1.07A2,2,0,0,1,22.4,8.78V20.84Z"/></svg>