<svg id="图层_1" data-name="图层 1" xmlns="http://www.w3.org/2000/svg" xmlns:xlink="http://www.w3.org/1999/xlink" viewBox="0 0 30.74 32.5"><defs><style>.cls-1{fill:url(#未命名的渐变_23);}.cls-2{fill:url(#未命名的渐变_23-2);}.cls-3{fill:url(#未命名的渐变_23-3);}</style><linearGradient id="未命名的渐变_23" x1="19.31" y1="26.94" x2="21.31" y2="26.94" gradientUnits="userSpaceOnUse"><stop offset="0" stop-color="#f37942"/><stop offset="1" stop-color="#ff4b3b"/></linearGradient><linearGradient id="未命名的渐变_23-2" x1="0" y1="16.25" x2="30.74" y2="16.25" xlink:href="#未命名的渐变_23"/><linearGradient id="未命名的渐变_23-3" x1="9.97" y1="16.62" x2="20.75" y2="16.62" xlink:href="#未命名的渐变_23"/></defs><title>icon-setting-selected</title><ellipse class="cls-1" cx="20.31" cy="26.94" rx="1" ry="1"/><path class="cls-2" d="M15.36,32.5a16.28,16.28,0,0,1-2.66-.22.77.77,0,0,1-.61-1,4.45,4.45,0,0,0-4.24-5.75,4.42,4.42,0,0,0-3.36,1.56.77.77,0,0,1-.58.27.79.79,0,0,1-.58-.26A16.19,16.19,0,0,1,.18,21.87a.77.77,0,0,1,.61-1,3.92,3.92,0,0,0,2.77-1.41A4.54,4.54,0,0,0,.68,12,.77.77,0,0,1,0,11,16.16,16.16,0,0,1,3.33,5.39a.83.83,0,0,1,.58-.26.77.77,0,0,1,.58.27A4.42,4.42,0,0,0,7.85,7a4.45,4.45,0,0,0,4.24-5.75.77.77,0,0,1,.61-1,16.13,16.13,0,0,1,5.72.07.77.77,0,0,1,.6,1c-.65,2.22.43,4.67,3.44,5.57a2.86,2.86,0,0,0,.81.13,4.38,4.38,0,0,0,3.2-1.37A.74.74,0,0,1,27,5.35a.77.77,0,0,1,.56.27,16.22,16.22,0,0,1,3,5.07.77.77,0,0,1-.61,1,3.29,3.29,0,0,0-2.09,1c-2.73,3.21-.89,7.11,2.25,7.72a.77.77,0,0,1,.58,1,16.19,16.19,0,0,1-2.93,5.24.77.77,0,0,1-.58.28h0a.77.77,0,0,1-.58-.27,4.44,4.44,0,0,0-2-1.33A.77.77,0,0,1,25,23.87,5.94,5.94,0,0,1,27.11,25,14.62,14.62,0,0,0,29,21.7a6,6,0,0,1-.14-11.24,14.64,14.64,0,0,0-1.89-3.22,5.89,5.89,0,0,1-3.67,1.27,3.44,3.44,0,0,1-1-.15c-3.86-1.14-5.33-4-4.95-6.68a14.39,14.39,0,0,0-3.59,0A6,6,0,0,1,7.85,8.51,5.94,5.94,0,0,1,3.94,7a14.59,14.59,0,0,0-2.14,3.64,6,6,0,0,1,4.31,5.76A6,6,0,0,1,2,22.15a14.63,14.63,0,0,0,2,3.3A6,6,0,0,1,13.82,30a6,6,0,0,1-.06.88,14.53,14.53,0,0,0,3.66-.05,5.91,5.91,0,0,1-.13-1.21,6.08,6.08,0,0,1,0-.72.77.77,0,1,1,1.53.18,4.56,4.56,0,0,0,0,.53,4.44,4.44,0,0,0,.28,1.56.77.77,0,0,1-.57,1A16.21,16.21,0,0,1,15.36,32.5Z"/><path class="cls-3" d="M15.36,22a5.42,5.42,0,1,1,5.39-5.42A5.41,5.41,0,0,1,15.36,22Zm0-9.28a3.87,3.87,0,1,0,3.85,3.87A3.87,3.87,0,0,0,15.36,12.75Z"/></svg>