<svg id="图层_1" data-name="图层 1" xmlns="http://www.w3.org/2000/svg" viewBox="0 0 22 22"><defs><style></style></defs><title>画板 47</title><circle class="cls-1" cx="13.67" cy="20.63" r="0.8"/><path class="cls-1" d="M20.09,21.16H16.26a.54.54,0,1,1,0-1.07h3.83a.27.27,0,0,0,.27-.27V1.91a.27.27,0,0,0-.27-.27H1.91a.27.27,0,0,0-.27.27V19.82a.27.27,0,0,0,.27.27H11a.54.54,0,0,1,0,1.07H1.91A1.34,1.34,0,0,1,.57,19.82V1.91A1.34,1.34,0,0,1,1.91.57H20.09a1.34,1.34,0,0,1,1.34,1.34V19.82A1.34,1.34,0,0,1,20.09,21.16Z"/><path class="cls-1" d="M1.47,18l-.72-.8L5,13.28a2,2,0,0,1,2.61,0l1.61,1.6a.37.37,0,0,0,.58,0,34.94,34.94,0,0,0,2.57-4.67,3.08,3.08,0,0,1,2.15-1.36A3.06,3.06,0,0,1,17,10.11c2.1,2.37,4,4.24,4,4.26l-.75.75s-1.91-1.91-4-4.3a2.23,2.23,0,0,0-1.6-.89,2.09,2.09,0,0,0-1.31.83,33.69,33.69,0,0,1-2.73,4.9,1.45,1.45,0,0,1-2.1,0l-1.6-1.61c-.47-.47-1.15,0-1.17,0Z"/><path class="cls-1" d="M6.72,9.93A2.14,2.14,0,1,1,8.86,7.79,2.14,2.14,0,0,1,6.72,9.93Zm0-3.21A1.07,1.07,0,1,0,7.79,7.79,1.07,1.07,0,0,0,6.72,6.72Z"/></svg>