<svg id="图层_1" data-name="图层 1" xmlns="http://www.w3.org/2000/svg" viewBox="0 0 45 45"><defs><style>.cls-2{fill:#666;}</style></defs><title>jicun</title><path class="cls-1" d="M35.55,16H14.67a1.14,1.14,0,0,1,0-2.28H35.55a1.14,1.14,0,0,1,0,2.28Z"/><path class="cls-1" d="M35.81,30H14.93a1.14,1.14,0,0,1,0-2.28H35.81a1.14,1.14,0,0,1,0,2.28Z"/><path class="cls-2" d="M41,44.95H9.51A2.8,2.8,0,0,1,6.85,42V3A2.8,2.8,0,0,1,9.51.05H41A2.8,2.8,0,0,1,43.66,3V42A2.8,2.8,0,0,1,41,44.95ZM9.51,2.39A.57.57,0,0,0,9,3V42a.57.57,0,0,0,.53.58H41a.57.57,0,0,0,.53-.58V3A.57.57,0,0,0,41,2.39Z"/><path class="cls-2" d="M9.69,44.91c-6.41,0-7.95-1.9-8.34-5a1.24,1.24,0,0,1,0-.16V14.7a1.1,1.1,0,0,1,1-1.14,1.1,1.1,0,0,1,1,1.14v25c.19,1.45.48,2.93,6.26,2.93a1.14,1.14,0,0,1,0,2.28Z"/></svg>