<svg id="图层_1" data-name="图层 1" xmlns="http://www.w3.org/2000/svg" viewBox="0 0 31 26"><defs><style></style></defs><title>icon-customer</title><path class="cls-1" d="M12.47,14.11A6.93,6.93,0,0,1,5.7,7.06,6.93,6.93,0,0,1,12.47,0a6.93,6.93,0,0,1,6.77,7.06A6.93,6.93,0,0,1,12.47,14.11Zm0-12.63A5.47,5.47,0,0,0,7.13,7.06a5.47,5.47,0,0,0,5.34,5.57,5.47,5.47,0,0,0,5.34-5.57A5.47,5.47,0,0,0,12.47,1.49Z"/><path class="cls-1" d="M24.59,26a.73.73,0,0,1-.71-.74,11.11,11.11,0,0,0-11.22-11,11.11,11.11,0,0,0-11.22,11A.73.73,0,0,1,.71,26,.73.73,0,0,1,0,25.26,12.56,12.56,0,0,1,12.65,12.81,12.56,12.56,0,0,1,25.3,25.26.73.73,0,0,1,24.59,26Z"/><path class="cls-1" d="M21.38,12.26a.74.74,0,0,1,0-1.49,3.83,3.83,0,0,0,3.74-3.9A3.83,3.83,0,0,0,21.38,3a.73.73,0,0,1-.71-.74.73.73,0,0,1,.71-.74,5.29,5.29,0,0,1,5.17,5.39A5.29,5.29,0,0,1,21.38,12.26Z"/><path class="cls-1" d="M30.29,21a.73.73,0,0,1-.71-.74,8,8,0,0,0-8.06-7.86.74.74,0,0,1,0-1.49A9.43,9.43,0,0,1,31,20.25.73.73,0,0,1,30.29,21Z"/></svg>