<svg id="图层_1" data-name="图层 1" xmlns="http://www.w3.org/2000/svg" viewBox="0 0 19.32 19.56"><defs><style></style></defs><title>画板 18</title><circle class="cls-1" cx="9.78" cy="14.31" r="0.72"/><path class="cls-1" d="M18.84,19.56a.43.43,0,0,1-.33-.14l-4.69-4.6a.48.48,0,0,1-.14-.34.45.45,0,0,1,.15-.34,7.63,7.63,0,1,0-5.24,2.08,7.76,7.76,0,0,0,2.45-.4.48.48,0,1,1,.31.9,8.59,8.59,0,1,1,5.83-8.13,8.47,8.47,0,0,1-2.35,5.89l4.35,4.26a.49.49,0,0,1,0,.68A.52.52,0,0,1,18.84,19.56Z"/><path class="cls-1" d="M7.42,14H7.34A5.28,5.28,0,0,1,2.86,8.83a.48.48,0,0,1,1,0,4.3,4.3,0,0,0,3.66,4.24.49.49,0,0,1,.41.55A.48.48,0,0,1,7.42,14Z"/></svg>