<svg id="图层_1" data-name="图层 1" xmlns="http://www.w3.org/2000/svg" viewBox="0 0 26 30"><defs><style></style></defs><title>icon-order</title><path class="cls-1" d="M21.24,21.37H5.13a.76.76,0,0,1,0-1.53H21.24a.76.76,0,0,1,0,1.53Z"/><path class="cls-1" d="M21.42,10.88H5.31a.76.76,0,0,1,0-1.53H21.42a.76.76,0,0,1,0,1.53Z"/><path class="cls-1" d="M17,30a.81.81,0,0,1-.92-.69.83.83,0,0,1,.66-1,.81.81,0,0,1,.92.69A.83.83,0,0,1,17,30Z"/><path class="cls-1" d="M12.82,29.76h-11A1.87,1.87,0,0,1,0,27.86V3.05A1.87,1.87,0,0,1,1.83,1.14H6.16a.75.75,0,0,1,.73.76.75.75,0,0,1-.73.76H1.83a.38.38,0,0,0-.37.38v24.8a.38.38,0,0,0,.37.38h11a.76.76,0,0,1,0,1.53Z"/><path class="cls-1" d="M24.17,29.76h-2.5a.76.76,0,0,1,0-1.53h2.5a.38.38,0,0,0,.37-.38V3.05a.38.38,0,0,0-.37-.38H20.26a.75.75,0,0,1-.73-.76.75.75,0,0,1,.73-.76h3.91A1.87,1.87,0,0,1,26,3.05v24.8A1.87,1.87,0,0,1,24.17,29.76Z"/><path class="cls-1" d="M15.38,5.34H10.62A2.62,2.62,0,0,1,8.06,2.67,2.62,2.62,0,0,1,10.62,0h4.76a2.62,2.62,0,0,1,2.56,2.67A2.62,2.62,0,0,1,15.38,5.34ZM10.62,1.53a1.12,1.12,0,0,0-1.1,1.14,1.12,1.12,0,0,0,1.1,1.14h4.76a1.12,1.12,0,0,0,1.1-1.14,1.12,1.12,0,0,0-1.1-1.14Z"/></svg>