<svg id="图层_1" data-name="图层 1" xmlns="http://www.w3.org/2000/svg" viewBox="0 0 17.27 14.17"><defs><style></style></defs><title>画板 403</title><path class="cls-1" d="M10.65,10h.63a1.26,1.26,0,0,0,.28.79.94.94,0,0,0,.71.28,1,1,0,0,0,.67-.2.75.75,0,0,0,.25-.59.67.67,0,0,0-.12-.43,1,1,0,0,0-.47-.27l-.73-.26A1.71,1.71,0,0,1,11,8.81a1.51,1.51,0,0,1-.23-.92,1.45,1.45,0,0,1,.41-1.07,1.44,1.44,0,0,1,1.08-.38,1.5,1.5,0,0,1,1.11.45A1.58,1.58,0,0,1,13.77,8v0h-.64a.91.91,0,0,0-.25-.63,1.05,1.05,0,0,0-1.24-.07.66.66,0,0,0-.21.53.56.56,0,0,0,.13.39,1.1,1.1,0,0,0,.48.26l.63.21a1.89,1.89,0,0,1,.93.56,1.49,1.49,0,0,1,.24.94,1.69,1.69,0,0,1-.45,1.23,1.59,1.59,0,0,1-1.21.42A1.46,1.46,0,0,1,11,11.38a2.06,2.06,0,0,1-.4-1.36Zm0,0"/><rect class="cls-1" x="11.81" y="5.14" width="0.71" height="1.49"/><rect class="cls-1" x="11.81" y="11.67" width="0.71" height="1.33"/><path class="cls-1" d="M8.42,4.27a.7.7,0,0,0,.74-.74.69.69,0,0,0-.74-.74.83.83,0,0,0-.89.74.83.83,0,0,0,.89.74ZM4.28,2.79a.83.83,0,0,0-.89.74.83.83,0,0,0,.89.74A.7.7,0,0,0,5,3.53a.7.7,0,0,0-.74-.74Zm0,0"/><path class="cls-1" d="M17.27,9c0-2.34-2.17-4.34-4.84-4.55a.3.3,0,0,0,0-.09C11.9,1.88,9.22,0,6.19,0,2.78,0,0,2.38,0,5.3A5.06,5.06,0,0,0,2.32,9.4L1.79,11a.27.27,0,0,0,.08.29.28.28,0,0,0,.18.06.25.25,0,0,0,.12,0l2-1,.24.05a8.41,8.41,0,0,0,1.79.23A2.58,2.58,0,0,0,7,10.49a5.32,5.32,0,0,0,5,3.09,7.3,7.3,0,0,0,1.74-.28l1.53.84a.33.33,0,0,0,.13,0,.25.25,0,0,0,.17-.06.29.29,0,0,0,.09-.29l-.39-1.3a4.61,4.61,0,0,0,2-3.5ZM6.71,9.89a4.9,4.9,0,0,1-.51,0,7.55,7.55,0,0,1-1.62-.22l-.32-.06a.37.37,0,0,0-.17,0l-1.44.72L3,9.24a.26.26,0,0,0-.1-.3A4.41,4.41,0,0,1,.73,5.31C.75,2.78,3.19.72,6.2.72c2.66,0,5,1.62,5.5,3.76-2.79,0-5,2-5,4.4a3.8,3.8,0,0,0,.14,1Zm7.92,2.16a.24.24,0,0,0-.09.28l.24.81-1-.55a.29.29,0,0,0-.13,0h-.06a6.77,6.77,0,0,1-1.63.27c-2.5,0-4.54-1.72-4.54-3.83s2-3.82,4.54-3.82S16.49,6.94,16.49,9a4,4,0,0,1-1.86,3Zm0,0"/></svg>