<svg id="图层_1" data-name="图层 1" xmlns="http://www.w3.org/2000/svg" xmlns:xlink="http://www.w3.org/1999/xlink" viewBox="0 0 28.65 28.65"><defs><style></style><linearGradient id="未命名的渐变_28" y1="14.33" x2="28.65" y2="14.33" gradientUnits="userSpaceOnUse"><stop offset="0" stop-color="#f38542"/><stop offset="1" stop-color="#fb593d"/></linearGradient><linearGradient id="未命名的渐变_28-2" x1="4.82" y1="14.04" x2="23.71" y2="14.04" xlink:href="#未命名的渐变_28"/><linearGradient id="未命名的渐变_28-3" x1="10.89" y1="14.05" x2="17.62" y2="14.05" xlink:href="#未命名的渐变_28"/></defs><title>画板 369</title><path class="cls-1" d="M28.22,10.85a.87.87,0,0,0-1.68.42,12.61,12.61,0,1,1-5.61-7.67.87.87,0,1,0,.92-1.47h0a14.32,14.32,0,1,0,6.39,8.73Z"/><path class="cls-2" d="M22.1,21.81H6.43A1.62,1.62,0,0,1,4.82,20.2V16.84l.33-.12a2.83,2.83,0,0,0,0-5.35l-.33-.12V7.89A1.62,1.62,0,0,1,6.43,6.28H22.08a1.63,1.63,0,0,1,1.63,1.61v3.36l-.33.12a2.83,2.83,0,0,0,0,5.35l.33.12V20.2A1.62,1.62,0,0,1,22.1,21.81ZM5.82,17.52V20.2a.62.62,0,0,0,.61.61H22.1a.62.62,0,0,0,.61-.61V17.53a3.83,3.83,0,0,1,0-7V7.89a.63.63,0,0,0-.63-.61H6.43a.62.62,0,0,0-.61.61v2.67a3.83,3.83,0,0,1,0,7Z"/><path class="cls-3" d="M17.62,13.77a.27.27,0,0,1-.28.28H14.83v1.11h2.51a.27.27,0,0,1,.28.28V16a.27.27,0,0,1-.28.28H14.83v2a.27.27,0,0,1-.28.28H14a.27.27,0,0,1-.28-.28v-2H11.17a.27.27,0,0,1-.28-.28v-.56a.27.27,0,0,1,.28-.28h2.51V14H11.17a.27.27,0,0,1-.28-.28v-.56a.27.27,0,0,1,.28-.28h2.11L11,10.46a.3.3,0,0,1,0-.4l.36-.4,0,0a.25.25,0,0,1,.34,0l2.55,2.75L16.8,9.68l0,0a.25.25,0,0,1,.34,0l.36.4a.3.3,0,0,1,0,.4l-2.29,2.47h2.11a.27.27,0,0,1,.28.28Z"/></svg>