<svg id="图层_1" data-name="图层 1" xmlns="http://www.w3.org/2000/svg" viewBox="0 0 39.07 39.07"><defs><style></style></defs><title>画板 406</title><path class="cls-1" d="M25.44,21.55H13.12a1,1,0,0,0,0,1.9H25.44a1,1,0,0,0,0-1.9Zm0-5.08H13.12a1,1,0,0,0,0,1.9H25.44a1,1,0,0,0,0-1.9Zm0,10.18H13.12a1,1,0,0,0,0,1.9H25.44a1,1,0,0,0,0-1.9ZM19.54,0A19.54,19.54,0,1,0,39.07,19.54,19.53,19.53,0,0,0,19.54,0Zm3.1,9.09a1.51,1.51,0,0,1,3,0v1.45A1.48,1.48,0,0,1,24.14,12a1.46,1.46,0,0,1-1.51-1.45Zm-9.74,0a1.51,1.51,0,0,1,3,0v1.45a1.51,1.51,0,0,1-3,0ZM29,29.33a3.24,3.24,0,0,1-3.24,3.25H12.81a3.24,3.24,0,0,1-3.24-3.25V13.09A3.23,3.23,0,0,1,11,10.4a.55.55,0,0,1,.86.45,2.31,2.31,0,0,0,2.52,2,2.31,2.31,0,0,0,2.52-2v-.47a.56.56,0,0,1,.56-.56h3.6a.56.56,0,0,1,.56.56v.47a2.31,2.31,0,0,0,2.52,2,2.31,2.31,0,0,0,2.52-2v0a.55.55,0,0,1,.85-.47A3.27,3.27,0,0,1,29,13.08Z"/></svg>