<?xml version="1.0" standalone="no"?><!DOCTYPE svg PUBLIC "-//W3C//DTD SVG 1.1//EN" "http://www.w3.org/Graphics/SVG/1.1/DTD/svg11.dtd"><svg t="1542953394465" class="icon" style="" viewBox="0 0 1024 1024" version="1.1" xmlns="http://www.w3.org/2000/svg" p-id="2104" xmlns:xlink="http://www.w3.org/1999/xlink" width="200" height="200"><defs><style type="text/css"></style></defs><path d="M896 341.333333h-106.666667V170.666667c0-93.866667-76.8-170.666667-170.666666-170.666667H405.333333c-93.866667 0-170.666667 76.8-170.666666 170.666667v170.666666H128c-36.266667 0-64 27.733333-64 64v554.666667c0 36.266667 27.733333 64 64 64h768c36.266667 0 64-27.733333 64-64V405.333333c0-36.266667-27.733333-64-64-64zM277.333333 192c0-83.2 64-149.333333 145.066667-149.333333h181.333333C682.666667 42.666667 746.666667 108.8 746.666667 192v149.333333H277.333333V192z m640 768c0 12.8-8.533333 21.333333-21.333333 21.333333H128c-12.8 0-21.333333-8.533333-21.333333-21.333333V405.333333c0-12.8 8.533333-21.333333 21.333333-21.333333h768c12.8 0 21.333333 8.533333 21.333333 21.333333v554.666667z" fill="#666767" p-id="2105"></path><path d="M499.2 578.133333c-25.6 4.266667-44.8 25.6-51.2 49.066667-6.4 34.133333 12.8 61.866667 40.533333 72.533333V768c0 12.8 8.533333 21.333333 21.333334 21.333333s21.333333-8.533333 21.333333-21.333333v-68.266667c25.6-8.533333 42.666667-32 42.666667-59.733333 2.133333-38.4-34.133333-70.4-74.666667-61.866667z" fill="#666767" p-id="2106"></path></svg>