<svg id="图层_1" data-name="图层 1" xmlns="http://www.w3.org/2000/svg" viewBox="0 0 54 46"><defs><style>.cls-2{fill:#666;}</style></defs><title>campaignCoreRules</title><path class="cls-1" d="M38.81,31.93H15.71a1.05,1.05,0,0,1,0-2.1h23.1a1,1,0,0,1,0,2.1Z"/><path class="cls-1" d="M39.08,17.49H16a1.05,1.05,0,1,1,0-2.1H39.08a1.05,1.05,0,1,1,0,2.1Z"/><path class="cls-2" d="M43,43.59H11a2.74,2.74,0,0,1-2.74-2.74V6.72A2.74,2.74,0,0,1,11,4H17.2a1.16,1.16,0,1,1,0,2.32H11a.42.42,0,0,0-.42.41V40.85a.41.41,0,0,0,.42.41H43a.41.41,0,0,0,.42-.41V6.72A.42.42,0,0,0,43,6.31h-5.6a1.16,1.16,0,1,1,0-2.32H43a2.74,2.74,0,0,1,2.74,2.73V40.85A2.74,2.74,0,0,1,43,43.59Z"/><path class="cls-2" d="M31,10H23A3.22,3.22,0,0,1,19.8,6.77V5.62A3.21,3.21,0,0,1,23,2.41h8A3.21,3.21,0,0,1,34.2,5.62V6.77A3.22,3.22,0,0,1,31,10ZM23,4.73a.89.89,0,0,0-.89.89V6.77a.89.89,0,0,0,.89.89h8a.89.89,0,0,0,.89-.89V5.62A.89.89,0,0,0,31,4.73Z"/></svg>