<svg id="图层_1" data-name="图层 1" xmlns="http://www.w3.org/2000/svg" xmlns:xlink="http://www.w3.org/1999/xlink" viewBox="0 0 26 30"><defs><style>.cls-1{fill:url(#未命名的渐变_23);}.cls-2{fill:url(#未命名的渐变_23-2);}.cls-3{fill:url(#未命名的渐变_23-3);}.cls-4{fill:url(#未命名的渐变_23-4);}.cls-5{fill:url(#未命名的渐变_23-5);}.cls-6{fill:url(#未命名的渐变_23-6);}</style><linearGradient id="未命名的渐变_23" x1="4.39" y1="20.61" x2="21.97" y2="20.61" gradientUnits="userSpaceOnUse"><stop offset="0" stop-color="#f37942"/><stop offset="1" stop-color="#ff4b3b"/></linearGradient><linearGradient id="未命名的渐变_23-2" x1="4.58" y1="10.11" x2="22.15" y2="10.11" xlink:href="#未命名的渐变_23"/><linearGradient id="未命名的渐变_23-3" x1="16.06" y1="29.16" x2="17.66" y2="29.16" xlink:href="#未命名的渐变_23"/><linearGradient id="未命名的渐变_23-4" x1="0" y1="15.45" x2="13.55" y2="15.45" xlink:href="#未命名的渐变_23"/><linearGradient id="未命名的渐变_23-5" x1="19.53" y1="15.45" x2="26" y2="15.45" xlink:href="#未命名的渐变_23"/><linearGradient id="未命名的渐变_23-6" x1="8.06" y1="2.67" x2="17.94" y2="2.67" xlink:href="#未命名的渐变_23"/></defs><title>icon-order-selected</title><path class="cls-1" d="M21.24,21.37H5.13a.76.76,0,0,1,0-1.53H21.24a.76.76,0,0,1,0,1.53Z"/><path class="cls-2" d="M21.42,10.88H5.31a.76.76,0,0,1,0-1.53H21.42a.76.76,0,0,1,0,1.53Z"/><path class="cls-3" d="M17,30a.81.81,0,0,1-.92-.69.83.83,0,0,1,.66-1,.81.81,0,0,1,.92.69A.83.83,0,0,1,17,30Z"/><path class="cls-4" d="M12.82,29.76h-11A1.87,1.87,0,0,1,0,27.86V3.05A1.87,1.87,0,0,1,1.83,1.14H6.16a.75.75,0,0,1,.73.76.75.75,0,0,1-.73.76H1.83a.38.38,0,0,0-.37.38v24.8a.38.38,0,0,0,.37.38h11a.76.76,0,0,1,0,1.53Z"/><path class="cls-5" d="M24.17,29.76h-2.5a.76.76,0,0,1,0-1.53h2.5a.38.38,0,0,0,.37-.38V3.05a.38.38,0,0,0-.37-.38H20.26a.75.75,0,0,1-.73-.76.75.75,0,0,1,.73-.76h3.91A1.87,1.87,0,0,1,26,3.05v24.8A1.87,1.87,0,0,1,24.17,29.76Z"/><path class="cls-6" d="M15.38,5.34H10.62A2.62,2.62,0,0,1,8.06,2.67,2.62,2.62,0,0,1,10.62,0h4.76a2.62,2.62,0,0,1,2.56,2.67A2.62,2.62,0,0,1,15.38,5.34ZM10.62,1.53a1.12,1.12,0,0,0-1.1,1.14,1.12,1.12,0,0,0,1.1,1.14h4.76a1.12,1.12,0,0,0,1.1-1.14,1.12,1.12,0,0,0-1.1-1.14Z"/></svg>