<svg id="图层_1" data-name="图层 1" xmlns="http://www.w3.org/2000/svg" viewBox="0 0 31 26"><defs><style></style></defs><title>icon-company</title><path class="cls-1" d="M30.27,26H21.15a.7.7,0,0,1-.73-.68V8.09a.65.65,0,0,0-.27-.53.78.78,0,0,0-.61-.13L6.25,10.11a1.39,1.39,0,0,0-1.15,1.32v13.9a.7.7,0,0,1-.73.68H.73a.68.68,0,1,1,0-1.35H3.65V11.43a2.77,2.77,0,0,1,2.3-2.64L19.23,6.11a2.31,2.31,0,0,1,1.84.4,2,2,0,0,1,.82,1.58V24.65h8.39a.68.68,0,1,1,0,1.35Z"/><path class="cls-1" d="M27,26a.7.7,0,0,1-.73-.68V2A.65.65,0,0,0,26,1.5a.77.77,0,0,0-.62-.13L12.52,4a1.37,1.37,0,0,0-1.14,1.32V8.53a.73.73,0,0,1-1.46,0V5.34A2.74,2.74,0,0,1,12.2,2.7L25.05,0a2.31,2.31,0,0,1,1.85.4A2,2,0,0,1,27.72,2v23.3A.7.7,0,0,1,27,26Z"/><path class="cls-1" d="M9.12,15.2a.72.72,0,0,1-.71-.54A.68.68,0,0,1,9,13.86l7.29-1.35a.73.73,0,0,1,.86.53.68.68,0,0,1-.57.79L9.26,15.18Z"/><path class="cls-1" d="M9.12,19.42a.72.72,0,0,1-.71-.54A.68.68,0,0,1,9,18.08l7.29-1.35a.73.73,0,0,1,.86.53.68.68,0,0,1-.57.79L9.26,19.4Z"/><path class="cls-1" d="M9.12,23.64a.72.72,0,0,1-.71-.54A.68.68,0,0,1,9,22.3l7.29-1.35a.73.73,0,0,1,.86.53.68.68,0,0,1-.57.79L9.26,23.62Z"/></svg>