<svg id="图层_1" data-name="图层 1" xmlns="http://www.w3.org/2000/svg" xmlns:xlink="http://www.w3.org/1999/xlink" viewBox="0 0 26 26"><defs><style>.cls-1{fill:url(#未命名的渐变_23);}.cls-2{fill:url(#未命名的渐变_23-2);}.cls-3{fill:url(#未命名的渐变_23-3);}.cls-4{fill:url(#未命名的渐变_23-4);}.cls-5{fill:url(#未命名的渐变_23-5);}.cls-6{fill:url(#未命名的渐变_23-6);}.cls-7{fill:url(#未命名的渐变_23-7);}.cls-8{fill:url(#未命名的渐变_23-8);}.cls-9{fill:url(#未命名的渐变_23-9);}.cls-10{fill:url(#未命名的渐变_23-10);}</style><linearGradient id="未命名的渐变_23" x1="23.6" y1="18.69" x2="26" y2="18.69" gradientUnits="userSpaceOnUse"><stop offset="0" stop-color="#f37942"/><stop offset="1" stop-color="#ff4b3b"/></linearGradient><linearGradient id="未命名的渐变_23-2" x1="0" y1="13" x2="25.6" y2="13" xlink:href="#未命名的渐变_23"/><linearGradient id="未命名的渐变_23-3" x1="10.4" y1="6.43" x2="21.6" y2="6.43" xlink:href="#未命名的渐变_23"/><linearGradient id="未命名的渐变_23-4" x1="4" y1="6.5" x2="7.2" y2="6.5" xlink:href="#未命名的渐变_23"/><linearGradient id="未命名的渐变_23-5" x1="6.15" y1="6.43" x2="11.45" y2="6.43" xlink:href="#未命名的渐变_23"/><linearGradient id="未命名的渐变_23-6" x1="4.4" y1="12.93" x2="15.6" y2="12.93" xlink:href="#未命名的渐变_23"/><linearGradient id="未命名的渐变_23-7" x1="18.8" y1="13" x2="22" y2="13" xlink:href="#未命名的渐变_23"/><linearGradient id="未命名的渐变_23-8" x1="14.55" y1="12.93" x2="19.85" y2="12.93" xlink:href="#未命名的渐变_23"/><linearGradient id="未命名的渐变_23-9" x1="9.2" y1="19.43" x2="21.6" y2="19.43" xlink:href="#未命名的渐变_23"/><linearGradient id="未命名的渐变_23-10" x1="4.95" y1="19.43" x2="10.25" y2="19.43" xlink:href="#未命名的渐变_23"/></defs><title>icon-shopmanage-selected</title><path class="cls-1" d="M25,19.89a1.2,1.2,0,0,1-1.38-1,1.22,1.22,0,0,1,1-1.4,1.2,1.2,0,0,1,1.38,1A1.22,1.22,0,0,1,25,19.89Z"/><path class="cls-2" d="M24,26H1.6A1.61,1.61,0,0,1,0,24.38V1.63A1.61,1.61,0,0,1,1.6,0H24a1.61,1.61,0,0,1,1.6,1.63V15.37a.8.8,0,1,1-1.6,0V1.63H1.6V24.38H24V22.89a.8.8,0,1,1,1.6,0v1.49A1.61,1.61,0,0,1,24,26Z"/><path class="cls-3" d="M20.8,7.24H11.2a.81.81,0,0,1,0-1.62h9.6a.81.81,0,0,1,0,1.63Z"/><path class="cls-4" d="M6.4,7.31H4.8a.81.81,0,0,1,0-1.62H6.4a.81.81,0,0,1,0,1.63Z"/><path class="cls-5" d="M8.8,9.13a2.69,2.69,0,1,1,2.65-2.69A2.68,2.68,0,0,1,8.8,9.13Zm0-4.06a1.37,1.37,0,1,0,1.35,1.37A1.36,1.36,0,0,0,8.8,5.06Z"/><path class="cls-6" d="M14.8,13.74H5.2a.81.81,0,0,1,0-1.62h9.6a.81.81,0,0,1,0,1.63Z"/><path class="cls-7" d="M21.2,13.81H19.6a.81.81,0,0,1,0-1.62h1.6a.81.81,0,0,1,0,1.63Z"/><path class="cls-8" d="M17.2,15.63a2.69,2.69,0,1,1,2.65-2.69A2.68,2.68,0,0,1,17.2,15.63Zm0-4.06a1.37,1.37,0,1,0,1.35,1.37A1.36,1.36,0,0,0,17.2,11.56Z"/><path class="cls-9" d="M20.8,20.24H10a.81.81,0,0,1,0-1.62H20.8a.81.81,0,0,1,0,1.63Z"/><path class="cls-10" d="M7.6,22.13a2.69,2.69,0,1,1,2.65-2.69A2.68,2.68,0,0,1,7.6,22.13Zm0-4.06a1.37,1.37,0,1,0,1.35,1.37A1.36,1.36,0,0,0,7.6,18.06Z"/></svg>