<svg id="图层_1" data-name="图层 1" xmlns="http://www.w3.org/2000/svg" viewBox="0 0 31 26"><defs><style></style></defs><title>icon-store</title><path class="cls-1" d="M23.15,26H19.41a.66.66,0,0,1-.68-.63v-7.2c0-1.14-.79-1.25-1-1.25H13.29a1.37,1.37,0,0,0-1.36,1v7.44a.66.66,0,0,1-.68.63H6.82C4.67,26,4.1,24,4.1,22.87v-5.7H1A.71.71,0,0,1,.5,17a1.48,1.48,0,0,1,0-2.2L14,.49l0,0a1.81,1.81,0,0,1,2.41,0l3.23,3.26a.59.59,0,0,1,0,.88.72.72,0,0,1-1,0L15.43,1.32a.35.35,0,0,0-.22-.07.36.36,0,0,0-.23.08L1.49,15.63l0,0a.3.3,0,0,0-.1.22.29.29,0,0,0,0,0H4.78a.66.66,0,0,1,.68.63v6.33c0,.07,0,1.88,1.36,1.88h3.74V17.86a.58.58,0,0,1,0-.12,2.71,2.71,0,0,1,2.71-2.07h4.42a2.38,2.38,0,0,1,2.38,2.5v6.57h3.06a1.37,1.37,0,0,0,1.36-1.57V16.61a.66.66,0,0,1,.68-.63h4.43a.52.52,0,0,0-.09-.43L24.2,10.17a.59.59,0,0,1,0-.88.72.72,0,0,1,1,0l5.31,5.36a1.67,1.67,0,0,1,0,2.37.71.71,0,0,1-.48.18H25.88v5.95A2.7,2.7,0,0,1,23.15,26Z"/><ellipse class="cls-1" cx="22.13" cy="6.59" rx="1.02" ry="0.94"/></svg>