<svg id="图层_1" data-name="图层 1" xmlns="http://www.w3.org/2000/svg" viewBox="0 0 26 26"><defs><style></style></defs><title>icon-console</title><path class="cls-1" d="M12,26a12,12,0,0,1-6.31-1.79.57.57,0,1,1,.6-1,10.86,10.86,0,0,0,16.55-8.67H12a.57.57,0,0,1-.57-.57V3.16a10.86,10.86,0,0,0-8.7,16.5.57.57,0,1,1-1,.6A12,12,0,0,1,12,2a.57.57,0,0,1,.57.57V13.43H23.43A.57.57,0,0,1,24,14,12,12,0,0,1,12,26Z"/><path class="cls-1" d="M25.43,12.57H16.55a.57.57,0,0,1,0-1.14h8.29A10.87,10.87,0,0,0,14.57,1.16V9.33a.57.57,0,1,1-1.14,0V.57A.57.57,0,0,1,14,0,12,12,0,0,1,26,12,.57.57,0,0,1,25.43,12.57Z"/><circle class="cls-1" cx="14.22" cy="11.58" r="0.63"/><circle class="cls-1" cx="3.94" cy="21.87" r="0.63"/></svg>