<svg id="图层_1" data-name="图层 1" xmlns="http://www.w3.org/2000/svg" viewBox="0 0 26 26"><defs><style></style></defs><title>icon-orders</title><path class="cls-1" d="M24.42,26H1.93A1.6,1.6,0,0,1,.35,24.38V17.14A.64.64,0,0,1,1,16.49a.64.64,0,0,1,.63.65v7.23a.32.32,0,0,0,.32.32H24.42a.32.32,0,0,0,.32-.32V6.5a.32.32,0,0,0-.32-.33H1.93a.32.32,0,0,0-.32.33v4.31a.64.64,0,0,1-.63.65.64.64,0,0,1-.63-.65V6.5A1.6,1.6,0,0,1,1.93,4.88H24.42A1.6,1.6,0,0,1,26,6.5V24.38A1.6,1.6,0,0,1,24.42,26Z"/><path class="cls-1" d="M25.37,22.43a.64.64,0,0,1-.63-.65V3.9a.32.32,0,0,0-.32-.32h-.08L6.64,1.3a.33.33,0,0,0-.29.32v3.9a.63.63,0,1,1-1.26,0V1.63A1.6,1.6,0,0,1,6.67,0h.08L24.46,2.28A1.61,1.61,0,0,1,26,3.9V21.78A.64.64,0,0,1,25.37,22.43Z"/><ellipse class="cls-1" cx="0.95" cy="13.98" rx="0.95" ry="0.97"/><path class="cls-1" d="M13.36,21.41h0A.7.7,0,0,1,13,21.3c-5.8-4.06-6.35-7.13-5.79-9a4.06,4.06,0,0,1,3.36-2.88,5.65,5.65,0,0,1,2.82.84,5.65,5.65,0,0,1,2.82-.84,4.06,4.06,0,0,1,3.36,2.88c.56,1.87,0,4.94-5.79,9A.62.62,0,0,1,13.36,21.41Zm0-.65h0Zm-2.84-10a2.88,2.88,0,0,0-2.15,2c-.6,2,1.17,4.58,5,7.31,3.8-2.73,5.56-5.32,5-7.31a2.88,2.88,0,0,0-2.15-2,4.56,4.56,0,0,0-2.45.84.62.62,0,0,1-.73,0A4.56,4.56,0,0,0,10.52,10.73Z"/></svg>