<?xml version="1.0" standalone="no"?><!DOCTYPE svg PUBLIC "-//W3C//DTD SVG 1.1//EN" "http://www.w3.org/Graphics/SVG/1.1/DTD/svg11.dtd"><svg t="1574817768764" class="icon" viewBox="0 0 1024 1024" version="1.1" xmlns="http://www.w3.org/2000/svg" p-id="1859" xmlns:xlink="http://www.w3.org/1999/xlink" width="200" height="200"><defs><style type="text/css"></style></defs><path d="M512 971.264c-253.44 0-459.264-205.312-459.264-459.264 0-253.44 205.824-459.264 459.264-459.264s459.264 205.824 459.264 459.264-205.824 459.264-459.264 459.264zM512 0C229.376 0 0 229.376 0 512s229.376 512 512 512 512-229.376 512-512S794.624 0 512 0z m170.496 477.696c18.944 0 34.304-8.704 34.304-27.648s-15.36-24.064-34.304-24.064h-104.96L666.112 337.92c13.312-13.312 29.696-34.816 16.384-48.128a33.9968 33.9968 0 0 0-48.128 0L508.928 414.72 384 289.28c-6.144-6.656-14.848-10.24-24.064-10.24-9.216 0-17.92 3.584-24.064 10.24-13.312 13.312 5.632 34.816 18.944 48.128l88.064 88.064H341.504c-18.944 0-34.304 5.632-34.304 24.064 0 18.944 15.36 27.648 34.304 27.648h136.704v84.992H341.504c-18.944 0-34.304 10.752-34.304 29.696 0 18.944 15.36 27.136 34.304 27.136h136.704v91.136a34.304 34.304 0 0 0 68.608 0V619.52h136.704c18.944 0 34.304-8.192 34.304-27.136 0-18.944-15.36-29.696-34.304-29.696h-136.704V477.696h135.68z" p-id="1860"></path></svg>