<?xml version="1.0" standalone="no"?><!DOCTYPE svg PUBLIC "-//W3C//DTD SVG 1.1//EN" "http://www.w3.org/Graphics/SVG/1.1/DTD/svg11.dtd"><svg t="1542953574637" class="icon" style="" viewBox="0 0 1024 1024" version="1.1" xmlns="http://www.w3.org/2000/svg" p-id="6187" xmlns:xlink="http://www.w3.org/1999/xlink" width="200" height="200"><defs><style type="text/css"></style></defs><path d="M768 64l-128 0c-105.856 0-192 86.144-192 192l0 192L48 448c-26.4 0-48 21.6-48 48l0 480c0 26.4 21.6 48 48 48l544 0c26.4 0 48-21.6 48-48L640 496c0-26.4-21.6-48-48-48l-16 0 0-192c0-35.296 28.704-64 64-64l128 0c35.296 0 64 28.704 64 64l0 192 128 0 0-192C960 150.144 873.856 64 768 64zM384 896l-128 0 27.84-139.2C267.04 745.28 256 725.92 256 704c0-35.36 28.64-64 64-64 35.36 0 64 28.64 64 64 0 21.92-11.04 41.28-27.84 52.8L384 896z" p-id="6188"></path></svg>