<svg id="图层_1" data-name="图层 1" xmlns="http://www.w3.org/2000/svg" viewBox="0 0 26 26"><defs><style></style></defs><title>icon-shopmanage</title><path class="cls-1" d="M25,19.89a1.2,1.2,0,0,1-1.38-1,1.22,1.22,0,0,1,1-1.4,1.2,1.2,0,0,1,1.38,1A1.22,1.22,0,0,1,25,19.89Z"/><path class="cls-1" d="M24,26H1.6A1.61,1.61,0,0,1,0,24.38V1.63A1.61,1.61,0,0,1,1.6,0H24a1.61,1.61,0,0,1,1.6,1.63V15.37a.8.8,0,1,1-1.6,0V1.63H1.6V24.38H24V22.89a.8.8,0,1,1,1.6,0v1.49A1.61,1.61,0,0,1,24,26Z"/><path class="cls-1" d="M20.8,7.24H11.2a.81.81,0,0,1,0-1.62h9.6a.81.81,0,0,1,0,1.63Z"/><path class="cls-1" d="M6.4,7.31H4.8a.81.81,0,0,1,0-1.62H6.4a.81.81,0,0,1,0,1.63Z"/><path class="cls-1" d="M8.8,9.13a2.69,2.69,0,1,1,2.65-2.69A2.68,2.68,0,0,1,8.8,9.13Zm0-4.06a1.37,1.37,0,1,0,1.35,1.37A1.36,1.36,0,0,0,8.8,5.06Z"/><path class="cls-1" d="M14.8,13.74H5.2a.81.81,0,0,1,0-1.62h9.6a.81.81,0,0,1,0,1.63Z"/><path class="cls-1" d="M21.2,13.81H19.6a.81.81,0,0,1,0-1.62h1.6a.81.81,0,0,1,0,1.63Z"/><path class="cls-1" d="M17.2,15.63a2.69,2.69,0,1,1,2.65-2.69A2.68,2.68,0,0,1,17.2,15.63Zm0-4.06a1.37,1.37,0,1,0,1.35,1.37A1.36,1.36,0,0,0,17.2,11.56Z"/><path class="cls-1" d="M20.8,20.24H10a.81.81,0,0,1,0-1.62H20.8a.81.81,0,0,1,0,1.63Z"/><path class="cls-1" d="M7.6,22.13a2.69,2.69,0,1,1,2.65-2.69A2.68,2.68,0,0,1,7.6,22.13Zm0-4.06a1.37,1.37,0,1,0,1.35,1.37A1.36,1.36,0,0,0,7.6,18.06Z"/></svg>